<svg id="Layer_1" data-name="Layer 1" xmlns="http://www.w3.org/2000/svg" viewBox="0 0 131.57 131.57"><defs><style>.cls-1{fill:none;stroke:#6d6e70;stroke-linecap:round;stroke-linejoin:round;stroke-width:1.5px;}</style></defs><title>3</title><rect class="cls-1" x="41.95" y="46.14" width="47.66" height="32.67" rx="2.16" ry="2.16"/><polygon class="cls-1" points="50.74 59.44 65.78 53.39 80.98 59.44 65.78 65.71 50.74 59.44"/><path class="cls-1" d="M1566.58,461.24v6.14a1.86,1.86,0,0,0,.58,1.37c0.57,0.4,9.84,5.07,19,0a2,2,0,0,0,.83-1.58c0-1,0-5.92,0-5.92" transform="translate(-1510.84 -399.72)"/><line class="cls-1" x1="61.83" y1="78.8" x2="61.83" y2="85.42"/><line class="cls-1" x1="69.72" y1="78.8" x2="69.72" y2="85.42"/><line class="cls-1" x1="57.88" y1="85.42" x2="73.38" y2="85.42"/><circle class="cls-1" cx="65.78" cy="65.78" r="65.03"/></svg>