<svg id="Layer_1" data-name="Layer 1" xmlns="http://www.w3.org/2000/svg" viewBox="0 0 24 24"><defs><style>.cls-1{fill:#231f20;}</style></defs><title>Source File</title><path class="cls-1" d="M12.78,23a11,11,0,0,1-8.1-3.58,0.37,0.37,0,0,1,.55-0.5A10.21,10.21,0,1,0,3.47,7.78,0.37,0.37,0,1,1,2.8,7.48,11,11,0,1,1,12.78,23Z"/><path class="cls-1" d="M2.19,12A22.37,22.37,0,0,1,7.09,6.66l-3.72.42L0.24,5A22.35,22.35,0,0,1,2.19,12Z"/><path class="cls-1" d="M17.43,15.83a0.37,0.37,0,0,1-.19-0.05l-5.17-3.16a0.37,0.37,0,0,1-.18-0.32V6.48a0.37,0.37,0,0,1,.74,0v5.6l5,3.06A0.37,0.37,0,0,1,17.43,15.83Z"/></svg>