<svg id="Layer_1" data-name="Layer 1" xmlns="http://www.w3.org/2000/svg" viewBox="0 0 24 24"><defs><style>.cls-1{fill:#4ea4ce;}</style></defs><title>Source File</title><path class="cls-1" d="M10.58,20.27a9.89,9.89,0,1,1,9.89-9.89A9.9,9.9,0,0,1,10.58,20.27Zm0-19a9.12,9.12,0,1,0,9.12,9.12A9.13,9.13,0,0,0,10.58,1.27Z"/><path class="cls-1" d="M23.14,23.62a0.38,0.38,0,0,1-.27-0.11l-6-6A0.38,0.38,0,1,1,17.42,17l6,6A0.38,0.38,0,0,1,23.14,23.62Z"/><path class="cls-1" d="M12.11,18A0.38,0.38,0,0,1,12,17.3a10,10,0,0,0,5.22-5.37,0.38,0.38,0,1,1,.72.26A10.54,10.54,0,0,1,12.24,18Z"/><path class="cls-1" d="M4.79,7.64a0.38,0.38,0,0,1-.34-0.55A9.67,9.67,0,0,1,7.19,4a0.38,0.38,0,1,1,.46.61A9.11,9.11,0,0,0,5.13,7.42,0.38,0.38,0,0,1,4.79,7.64Z"/></svg>