<?xml version="1.0" encoding="utf-8"?>
<!-- Generator: Adobe Illustrator 21.1.0, SVG Export Plug-In . SVG Version: 6.00 Build 0)  -->
<svg version="1.1" id="Layer_1" xmlns="http://www.w3.org/2000/svg" xmlns:xlink="http://www.w3.org/1999/xlink" x="0px" y="0px"
	 viewBox="0 0 199.6 190.5" style="enable-background:new 0 0 199.6 190.5;" xml:space="preserve">
<style type="text/css">
	.st0{fill:#333132;}
	.st1{fill:#CB2127;}
</style>
<title>1</title>
<path class="st0" d="M114.6,188.5H86.4c-7.2,0-13-5.8-13-13l0,0v-67c0-7.2,5.8-13,13-13h28.2c7.2,0,13,5.8,13,13v67
	C127.6,182.7,121.7,188.5,114.6,188.5C114.6,188.5,114.6,188.5,114.6,188.5z M86.4,100c-4.7,0-8.5,3.8-8.5,8.5v67
	c0,4.7,3.8,8.5,8.5,8.5h28.2c4.7,0,8.5-3.8,8.5-8.5v-67c0-4.7-3.8-8.5-8.5-8.5L86.4,100L86.4,100z"/>
<path class="st0" d="M117.8,100H83.1c-1.2,0-2.2-1-2.2-2.2V36.1c0-1.2,1-2.2,2.2-2.2c1.2,0,2.2,1,2.2,2.2v59.4h30.2V7
	c0-1.2,1-2.2,2.2-2.2c1.2,0,2.2,1,2.2,2.2v90.7C120.1,99,119.1,100,117.8,100C117.8,100,117.8,100,117.8,100z"/>
<ellipse transform="matrix(0.7388 -0.6739 0.6739 0.7388 11.808 73.207)" class="st1" cx="100.3" cy="21.4" rx="22.6" ry="8.6"/>
<path class="st0" d="M87.3,40c-2,0.1-3.9-0.6-5.3-2c-2.2-2.4-2.1-6.5,0.4-11.5c2.7-5,6.3-9.5,10.6-13.2c4.1-3.9,8.9-7.1,14.2-9.3
	c5.2-2,9.2-1.8,11.5,0.6s2.1,6.5-0.4,11.5c-2.7,5-6.3,9.5-10.6,13.3l0,0C99.5,36.9,92.2,40,87.3,40z M113.5,7
	c-1.6,0.1-3.2,0.4-4.6,1.1c-4.7,2.1-9.1,4.9-12.8,8.5c-3.9,3.4-7.1,7.5-9.6,12c-1.8,3.6-1.7,5.8-1.1,6.4c1.7,1.9,10.3-0.7,19.3-9
	l0,0c3.9-3.4,7.1-7.5,9.6-12c1.8-3.6,1.7-5.8,1.1-6.5C114.8,7.2,114.1,7,113.5,7L113.5,7z M106.2,27.7L106.2,27.7z"/>
<path class="st0" d="M85.8,142.4c-1.2,0-2.2-1-2.2-2.2l0,0v-23.3c-0.1-0.9-0.3-5.3,2.3-8.2c1.4-1.5,3.4-2.3,5.5-2.3
	c1.2,0,2.2,1,2.2,2.2c0,1.2-1,2.2-2.2,2.2c-0.8-0.1-1.6,0.2-2.1,0.8c-1.2,1.3-1.2,4.2-1.2,4.8c0,0.1,0,0.1,0,0.2v23.4
	C88,141.4,87,142.4,85.8,142.4z"/>
</svg>
