<svg id="Layer_1" data-name="Layer 1" xmlns="http://www.w3.org/2000/svg" viewBox="0 0 199.6 190.53"><defs><style>.cls-1{fill:#333132;}</style></defs><title>1</title><path class="cls-1" d="M115.36,188.49H87.17a13,13,0,0,1-13-13v-67a13,13,0,0,1,13-13h28.2a13,13,0,0,1,13,13v67A13,13,0,0,1,115.36,188.49ZM87.17,100a8.54,8.54,0,0,0-8.53,8.53v67A8.54,8.54,0,0,0,87.17,184h28.2a8.54,8.54,0,0,0,8.53-8.53v-67a8.54,8.54,0,0,0-8.53-8.53H87.17Z"/><path class="cls-1" d="M118.61,100H83.92a2.24,2.24,0,0,1-2.24-2.24V36.06a2.24,2.24,0,0,1,4.49,0V95.5h30.2V7a2.24,2.24,0,1,1,4.49,0V97.74A2.24,2.24,0,0,1,118.61,100Z"/><path class="cls-1" d="M88.1,40.05a6.9,6.9,0,0,1-5.29-2c-3.65-4-1-13.79,11-24.77A48.43,48.43,0,0,1,108,4c5.18-2,9.25-1.8,11.48.64,3.65,4,1,13.79-11,24.77h0C100.29,36.88,93,40.05,88.1,40.05Zm26.15-33a13.21,13.21,0,0,0-4.62,1.08,44,44,0,0,0-12.8,8.45c-9,8.23-12.42,16.55-10.7,18.43s10.31-.73,19.33-9,12.41-16.55,10.7-18.43A2.58,2.58,0,0,0,114.25,7.09ZM107,27.75h0Z"/><path class="cls-1" d="M86.61,142.4a2.24,2.24,0,0,1-2.24-2.24V116.83c-0.07-.92-0.27-5.33,2.3-8.18a7.14,7.14,0,0,1,5.46-2.28,2.24,2.24,0,0,1,0,4.49,2.61,2.61,0,0,0-2.13.81c-1.22,1.34-1.22,4.16-1.15,4.84q0,0.11,0,.22v23.43A2.24,2.24,0,0,1,86.61,142.4Z"/></svg>