<?xml version="1.0" encoding="utf-8"?>
<!-- Generator: Adobe Illustrator 21.0.0, SVG Export Plug-In . SVG Version: 6.00 Build 0)  -->
<svg version="1.1" id="Layer_1" xmlns="http://www.w3.org/2000/svg" xmlns:xlink="http://www.w3.org/1999/xlink" x="0px" y="0px"
	 viewBox="0 0 199.6 190.5" style="enable-background:new 0 0 199.6 190.5;" xml:space="preserve">
<style type="text/css">
	.st0{fill:#FFFFFF;}
</style>
<title>1</title>
<path class="st0" d="M115.4,188.5H87.2c-7.2,0-13-5.8-13-13l0,0v-67c0-7.2,5.8-13,13-13h28.2c7.2,0,13,5.8,13,13v67
	C128.4,182.7,122.5,188.5,115.4,188.5C115.4,188.5,115.4,188.5,115.4,188.5z M87.2,100c-4.7,0-8.5,3.8-8.5,8.5v67
	c0,4.7,3.8,8.5,8.5,8.5h28.2c4.7,0,8.5-3.8,8.5-8.5v-67c0-4.7-3.8-8.5-8.5-8.5L87.2,100L87.2,100z"/>
<path class="st0" d="M118.6,100H83.9c-1.2,0-2.2-1-2.2-2.2V36.1c0-1.2,1-2.2,2.2-2.2c1.2,0,2.2,1,2.2,2.2v59.4h30.2V7
	c0-1.2,1-2.2,2.2-2.2c1.2,0,2.2,1,2.2,2.2v90.7C120.9,99,119.9,100,118.6,100C118.6,100,118.6,100,118.6,100z"/>
<path class="st0" d="M88.1,40c-2,0.1-3.9-0.6-5.3-2c-3.7-4-1-13.8,11-24.8c4.1-3.9,9-7,14.2-9.3c5.2-2,9.2-1.8,11.5,0.6
	c3.7,4,1,13.8-11,24.8l0,0C100.3,36.9,93,40,88.1,40z M114.2,7c-1.6,0.1-3.2,0.4-4.6,1.1c-4.7,2-9.1,4.9-12.8,8.4
	c-9,8.2-12.4,16.5-10.7,18.4s10.3-0.7,19.3-9s12.4-16.5,10.7-18.4C115.6,7.2,114.9,7,114.2,7L114.2,7z M107,27.8L107,27.8z"/>
<path class="st0" d="M86.6,142.4c-1.2,0-2.2-1-2.2-2.2l0,0v-23.3c-0.1-0.9-0.3-5.3,2.3-8.2c1.4-1.5,3.4-2.3,5.5-2.3
	c1.2,0,2.2,1,2.2,2.2c0,1.2-1,2.2-2.2,2.2c-0.8-0.1-1.6,0.2-2.1,0.8c-1.2,1.3-1.2,4.2-1.2,4.8c0,0.1,0,0.1,0,0.2v23.4
	C88.8,141.4,87.8,142.4,86.6,142.4z"/>
</svg>
