<svg id="Layer_1" data-name="Layer 1" xmlns="http://www.w3.org/2000/svg" viewBox="0 0 199.6 190.53"><defs><style>.cls-1{fill:#333132;}</style></defs><title>1</title><path class="cls-1" d="M180,169.95H17.84a14,14,0,0,1-14-14V57.62a14,14,0,0,1,14-14H180a14,14,0,0,1,14,14v98.33A14,14,0,0,1,180,169.95ZM17.84,47.62a10,10,0,0,0-10,10v98.33a10,10,0,0,0,10,10H180a10,10,0,0,0,10-10V57.62a10,10,0,0,0-10-10H17.84Z"/><path class="cls-1" d="M87.53,122.84H87.34c-34.66-3.17-55.49-20.56-66.87-34.6C8.15,73,4.08,58.75,3.91,58.15a2,2,0,0,1-.07-0.54c0-4.17,1.26-7.53,3.75-10,4.1-4,10-4,10.27-4H180c7.15,0,10.6,3.86,12.24,7.1A17.23,17.23,0,0,1,194,57.59a2,2,0,0,1-.07.56c-0.16.58-4.08,14.35-15.89,29.25-10.9,13.75-30.84,31-64,35a2,2,0,1,1-.49-4c31.69-3.88,50.78-20.32,61.21-33.43A90.46,90.46,0,0,0,190,57.36c-0.1-1.82-1-9.74-10-9.74H17.84c-0.13,0-4.59,0-7.46,2.88a9.49,9.49,0,0,0-2.54,6.83A90.68,90.68,0,0,0,23.69,85.85c15.83,19.46,37.37,30.57,64,33A2,2,0,0,1,87.53,122.84Z"/><path class="cls-1" d="M100.58,140.78h-0.17a14,14,0,0,1-14-14V116.45a14,14,0,0,1,14-14h0.17a14,14,0,0,1,14,14v10.33A14,14,0,0,1,100.58,140.78Zm-0.17-34.33a10,10,0,0,0-10,10v10.33a10,10,0,0,0,10,10h0.17a10,10,0,0,0,10-10V116.45a10,10,0,0,0-10-10h-0.17Z"/><path class="cls-1" d="M139.2,48.12a2.5,2.5,0,0,1-2.5-2.5V33.72a9.51,9.51,0,0,0-9.5-9.5H74.06a9.51,9.51,0,0,0-9.5,9.5V45.62a2.5,2.5,0,1,1-5,0V33.72a14.52,14.52,0,0,1,14.5-14.5H127.2a14.52,14.52,0,0,1,14.5,14.5V45.62A2.5,2.5,0,0,1,139.2,48.12Z"/></svg>