<?xml version="1.0" encoding="utf-8"?>
<!-- Generator: Adobe Illustrator 21.0.0, SVG Export Plug-In . SVG Version: 6.00 Build 0)  -->
<svg version="1.1" id="Layer_1" xmlns="http://www.w3.org/2000/svg" xmlns:xlink="http://www.w3.org/1999/xlink" x="0px" y="0px"
	 viewBox="0 0 199.6 190.5" style="enable-background:new 0 0 199.6 190.5;" xml:space="preserve">
<style type="text/css">
	.st0{fill:#FFFFFF;}
</style>
<title>1</title>
<path class="st0" d="M180,169.9H17.8c-7.7,0-14-6.3-14-14V57.6c0-7.7,6.3-14,14-14H180c7.7,0,14,6.3,14,14v98.3
	C194,163.7,187.7,169.9,180,169.9z M17.8,47.6c-5.5,0-10,4.5-10,10v98.3c0,5.5,4.5,10,10,10H180c5.5,0,10-4.5,10-10V57.6
	c0-5.5-4.5-10-10-10H17.8z"/>
<path class="st0" d="M87.5,122.8h-0.2c-34.7-3.2-55.5-20.6-66.9-34.6C8.1,73,4.1,58.8,3.9,58.2c0-0.2-0.1-0.4-0.1-0.5
	c0-4.2,1.3-7.5,3.8-10c4.1-4,10-4,10.3-4H180c7.1,0,10.6,3.9,12.2,7.1c1.1,2.1,1.7,4.5,1.8,6.9c0,0.2,0,0.4-0.1,0.6
	c-0.2,0.6-4.1,14.3-15.9,29.2c-10.9,13.8-30.8,31-64,35c-1.1,0.1-2.1-0.7-2.2-1.8c-0.1-1.1,0.7-2.1,1.8-2.2
	c31.7-3.9,50.8-20.3,61.2-33.4c6.7-8.2,11.8-17.6,15.2-27.6c-0.1-1.8-1-9.7-10-9.7H17.8c-0.1,0-4.6,0-7.5,2.9
	c-1.7,1.8-2.6,4.3-2.5,6.8c3.5,10.4,8.9,20,15.9,28.5c15.8,19.5,37.4,30.6,64,33c1.1,0.1,1.9,1.1,1.8,2.2
	C89.4,122,88.5,122.8,87.5,122.8z"/>
<path class="st0" d="M100.6,140.8h-0.2c-7.7,0-14-6.3-14-14v-10.3c0-7.7,6.3-14,14-14l0,0h0.2c7.7,0,14,6.3,14,14l0,0v10.3
	C114.6,134.5,108.3,140.8,100.6,140.8z M100.4,106.4c-5.5,0-10,4.5-10,10v10.3c0,5.5,4.5,10,10,10h0.2c5.5,0,10-4.5,10-10v-10.3
	c0-5.5-4.5-10-10-10H100.4z"/>
<path class="st0" d="M139.2,48.1c-1.4,0-2.5-1.1-2.5-2.5V33.7c0-5.2-4.3-9.5-9.5-9.5H74.1c-5.2,0-9.5,4.3-9.5,9.5v11.9
	c0,1.4-1.1,2.5-2.5,2.5s-2.5-1.1-2.5-2.5V33.7c0-8,6.5-14.5,14.5-14.5h53.1c8,0,14.5,6.5,14.5,14.5v11.9
	C141.7,47,140.6,48.1,139.2,48.1z"/>
</svg>
