<?xml version="1.0" encoding="utf-8"?>
<!-- Generator: Adobe Illustrator 21.1.0, SVG Export Plug-In . SVG Version: 6.00 Build 0)  -->
<svg version="1.1" id="Layer_1" xmlns="http://www.w3.org/2000/svg" xmlns:xlink="http://www.w3.org/1999/xlink" x="0px" y="0px"
	 viewBox="0 0 199.6 190.5" style="enable-background:new 0 0 199.6 190.5;" xml:space="preserve">
<style type="text/css">
	.st0{fill:#333132;}
	.st1{fill:#CB2127;}
</style>
<title>1</title>
<path class="st0" d="M181.5,169.9H19.4c-7.7,0-14-6.3-14-14V57.6c0-7.7,6.3-14,14-14h162.1c7.7,0,14,6.3,14,14v98.3
	C195.5,163.7,189.2,169.9,181.5,169.9z M19.4,47.6c-5.5,0-10,4.5-10,10v98.3c0,5.5,4.5,10,10,10h162.1c5.5,0,10-4.5,10-10V57.6
	c0-5.5-4.5-10-10-10H19.4z"/>
<path class="st1" d="M7.4,57.6c0,0,17.8,63.7,93.1,63.7s93.1-63.7,93.1-63.7s-0.1-12-12-12H19.4C19.4,45.6,7.4,45.5,7.4,57.6z"/>
<path class="st0" d="M100.4,123.3c-39.7,0-63.4-17.7-76.3-32.5c-14-16.1-18.5-32-18.7-32.6c0-0.2-0.1-0.4-0.1-0.5
	c0-4.2,1.3-7.5,3.8-10c4.1-4,10-4,10.3-4h162.1c7.1,0,10.6,3.9,12.2,7.1c1.1,2.1,1.7,4.5,1.8,6.9c0,0.2,0,0.4-0.1,0.6
	c-0.2,0.7-4.7,16.6-18.7,32.6C163.8,105.6,140.1,123.3,100.4,123.3z M9.4,57.3c3.9,11.4,10,21.9,17.9,31c18,20.6,42.6,31,73.2,31
	s55.2-10.4,73.2-31c7.9-9,14-19.6,17.9-30.9c-0.1-1.8-1-9.7-10-9.7H19.4c-0.1,0-4.6,0-7.5,2.9C10.2,52.4,9.3,54.8,9.4,57.3L9.4,57.3
	z"/>
<path class="st1" d="M101.9,104.4h0.2c6.6,0,12,5.4,12,12v10.3c0,6.6-5.4,12-12,12h-0.2c-6.6,0-12-5.4-12-12v-10.3
	C89.9,109.8,95.3,104.4,101.9,104.4z"/>
<path class="st0" d="M102.1,140.8h-0.2c-7.7,0-14-6.3-14-14v-10.3c0-7.7,6.3-14,14-14l0,0h0.2c7.7,0,14,6.3,14,14l0,0v10.3
	C116.1,134.5,109.8,140.8,102.1,140.8z M101.9,106.4c-5.5,0-10,4.5-10,10v10.3c0,5.5,4.5,10,10,10h0.2c5.5,0,10-4.5,10-10v-10.3
	c0-5.5-4.5-10-10-10H101.9z"/>
<path class="st0" d="M140.7,48.1c-1.4,0-2.5-1.1-2.5-2.5V33.7c0-5.2-4.3-9.5-9.5-9.5H75.6c-5.2,0-9.5,4.3-9.5,9.5v11.9
	c0,1.4-1.1,2.5-2.5,2.5c-1.4,0-2.5-1.1-2.5-2.5V33.7c0-8,6.5-14.5,14.5-14.5h53.1c8,0,14.5,6.5,14.5,14.5v11.9
	C143.2,47,142.1,48.1,140.7,48.1z"/>
</svg>
