<?xml version="1.0" encoding="utf-8"?>
<!-- Generator: Adobe Illustrator 21.1.0, SVG Export Plug-In . SVG Version: 6.00 Build 0)  -->
<svg version="1.1" id="Layer_1" xmlns="http://www.w3.org/2000/svg" xmlns:xlink="http://www.w3.org/1999/xlink" x="0px" y="0px"
	 viewBox="0 0 199.6 190.5" style="enable-background:new 0 0 199.6 190.5;" xml:space="preserve">
<style type="text/css">
	.st0{fill:#CB2127;}
	.st1{fill:#333132;}
</style>
<title>1</title>
<path class="st0" d="M101.6,35.6H88.2c-2.8,0-6.4-2.2-6.4-4.9l-3.7-21c0-2.8,2.2-5,5-5h22.7c2.8,0,5,2.2,5,5L107.6,30
	C107.6,32.8,104.3,35.6,101.6,35.6z"/>
<path class="st1" d="M101.6,37.5H88.2c-3.8,0-8.2-2.9-8.4-6.6L76.2,10c0-0.1,0-0.2,0-0.3c0-3.8,3.1-6.9,6.9-6.9h22.7
	c3.8,0,6.9,3.1,6.9,6.9c0,0.1,0,0.2,0,0.3l-3.2,20.2C109.4,33.9,105.4,37.5,101.6,37.5z M80,9.5l3.7,20.9c0,0.1,0,0.2,0,0.3
	c0,1.3,2.5,3,4.5,3h13.3c1.8,0,4.1-2,4.1-3.6c0-0.1,0-0.2,0-0.3l3.2-20.2c-0.1-1.6-1.4-2.9-3.1-2.9H83.1C81.4,6.7,80.1,7.9,80,9.5z"
	/>
<path class="st1" d="M94.4,188.3c-0.5,0-1-0.2-1.4-0.6l-27.5-27c-0.4-0.4-0.6-1-0.6-1.6L81.8,33.7c0.1-1.1,1.1-1.8,2.2-1.7
	c0.6,0.1,1.1,0.4,1.4,0.9c0.9,0.5,2,0.7,3,0.8h11.6c1,0,2-0.1,3-0.3c1-0.2,2.1,0.5,2.3,1.5c0,0,0,0.1,0,0.1l18.4,124.1
	c0.1,0.6-0.1,1.2-0.6,1.6l-27.2,27C95.4,188.1,94.9,188.3,94.4,188.3z M69,158.6l25.4,25l25.2-25l-18-121.2
	c-0.6,0.1-1.2,0.1-1.7,0.1H88.1c-1-0.1-1.9-0.2-2.9-0.5L69,158.6z M85.3,33L85.3,33z"/>
<path class="st0" d="M103.3,35.3c0,0,2.9,33.1,41,51.4l2.4,9.4l-7.9,4.9c0,0-25.8-14.5-29.1-22.6L103.3,35.3z"/>
<path class="st1" d="M138.8,102.9c-0.3,0-0.7-0.1-0.9-0.2c-2.7-1.5-26.6-15.1-30-23.6c-0.1-0.1-0.1-0.3-0.1-0.4l-6-40.6
	c-0.3-1.5-0.4-2.5-0.4-2.7c-0.1-1.1,0.7-2,1.8-2.1c1-0.1,1.9,0.6,2,1.6l0.3,1.8c1.2,6.8,7.9,33,39.7,48.2c0.5,0.3,0.9,0.7,1,1.3
	l2.4,9.4c0.2,0.8-0.1,1.7-0.9,2.1l-7.9,4.9C139.5,102.8,139.2,102.9,138.8,102.9z M111.6,77.9c2.7,5.9,19.6,16.6,27.2,20.9l5.7-3.6
	l-1.9-7.2c-18.4-9-28.6-21.3-34.3-31.8L111.6,77.9z"/>
</svg>
