<svg id="Layer_1" data-name="Layer 1" xmlns="http://www.w3.org/2000/svg" viewBox="0 0 199.6 190.53"><defs><style>.cls-1{fill:#333132;}</style></defs><title>1</title><path class="cls-1" d="M98.73,33.78H85.39c-3.81,0-8.23-2.89-8.37-6.64L73.33,6.25a1.91,1.91,0,0,1,0-.34A6.93,6.93,0,0,1,80.22-1H103a6.93,6.93,0,0,1,6.92,6.92,1.88,1.88,0,0,1,0,.3l-3.19,20.23C106.54,30.11,102.6,33.78,98.73,33.78Zm-21.56-28,3.68,20.85a1.91,1.91,0,0,1,0,.34c0,1.33,2.49,3,4.51,3H98.73c1.79,0,4.07-2,4.07-3.64a1.88,1.88,0,0,1,0-.3L106,5.79A3.06,3.06,0,0,0,103,2.86H80.22A3.06,3.06,0,0,0,77.17,5.77Z"/><path class="cls-1" d="M91.59,184.55a1.93,1.93,0,0,1-1.36-.55L62.77,157a1.94,1.94,0,0,1-.56-1.63L78.94,30a1.93,1.93,0,0,1,3.53-.81,7.07,7.07,0,0,0,3,.75H97.09a22,22,0,0,0,3-.31,1.93,1.93,0,0,1,2.24,1.62l18.39,124.08a1.93,1.93,0,0,1-.55,1.65L92.95,184A1.93,1.93,0,0,1,91.59,184.55ZM66.17,154.89l25.41,25,25.21-25-18-121.23c-0.56.06-1.17,0.1-1.73,0.1H85.28a13.68,13.68,0,0,1-2.89-.48ZM82.49,29.21h0Z"/><path class="cls-1" d="M136,99.19a1.93,1.93,0,0,1-.95-0.25c-2.71-1.52-26.56-15.11-30-23.59a1.93,1.93,0,0,1-.12-0.44l-6-40.57c-0.28-1.51-.37-2.45-0.39-2.66a1.93,1.93,0,0,1,3.83-.45L102.62,33c1.21,6.77,7.87,32.95,39.67,48.22a1.93,1.93,0,0,1,1,1.26l2.45,9.42a1.93,1.93,0,0,1-.85,2.13L137,98.9A1.93,1.93,0,0,1,136,99.19ZM108.72,74.1C111.38,80,128.37,90.67,135.95,95l5.73-3.55-1.87-7.18c-18.39-9-28.62-21.38-34.3-31.85Z"/></svg>