<svg id="Layer_1" data-name="Layer 1" xmlns="http://www.w3.org/2000/svg" viewBox="0 0 199.6 190.53"><defs><style>.cls-1{fill:#333132;}</style></defs><title>1</title><path class="cls-1" d="M160.91,187.81H43.41a15.6,15.6,0,0,1-15.58-15.58V103.46a2.56,2.56,0,1,1,5.11,0v68.77A10.48,10.48,0,0,0,43.41,182.7h117.5a10.48,10.48,0,0,0,10.47-10.47V103.46a2.56,2.56,0,1,1,5.11,0v68.77A15.6,15.6,0,0,1,160.91,187.81Z"/><path class="cls-1" d="M186.07,105.53H18.32a2.56,2.56,0,1,1,0-5.11H186.07A2.56,2.56,0,1,1,186.07,105.53Z"/><path class="cls-1" d="M173.94,106H30.38a2.56,2.56,0,0,1-2.44-3.33c0.15-.46,3.75-11.47,14.75-22.54C52.79,70,71.31,57.87,102.16,57.87S151.53,70,161.63,80.14c11,11.07,14.6,22.07,14.75,22.54A2.56,2.56,0,0,1,173.94,106ZM34.2,100.9H170.12a62.24,62.24,0,0,0-12.3-17.34C144.14,69.91,125.41,63,102.16,63s-42,6.92-55.66,20.58A62.21,62.21,0,0,0,34.2,100.9Z"/><path class="cls-1" d="M117.81,48.77H86.58a2.56,2.56,0,1,1,0-5.11h31.23A2.56,2.56,0,0,1,117.81,48.77Z"/><path class="cls-1" d="M88.36,34a2.56,2.56,0,0,1-2.56-2.56V13.17a2.56,2.56,0,0,1,5.11,0V31.47A2.56,2.56,0,0,1,88.36,34Z"/><path class="cls-1" d="M117.81,34a2.56,2.56,0,0,1-2.56-2.56V13.17a2.56,2.56,0,1,1,5.11,0V31.47A2.56,2.56,0,0,1,117.81,34Z"/><path class="cls-1" d="M103.22,34a2.56,2.56,0,0,1-2.56-2.56V5.14a2.56,2.56,0,1,1,5.11,0V31.47A2.56,2.56,0,0,1,103.22,34Z"/></svg>