<?xml version="1.0" encoding="utf-8"?>
<!-- Generator: Adobe Illustrator 21.1.0, SVG Export Plug-In . SVG Version: 6.00 Build 0)  -->
<svg version="1.1" id="Layer_1" xmlns="http://www.w3.org/2000/svg" xmlns:xlink="http://www.w3.org/1999/xlink" x="0px" y="0px"
	 viewBox="0 0 199.6 190.5" style="enable-background:new 0 0 199.6 190.5;" xml:space="preserve">
<style type="text/css">
	.st0{fill:#333132;}
	.st1{fill:#CB2127;}
</style>
<title>1</title>
<path class="st0" d="M158.1,187.3H40.6c-8.3,0-15.1-6.8-15.1-15.1v-68.8c0-1.1,0.9-2,2-2s2,0.9,2,2v68.8c0,6.1,4.9,11,11,11h117.5
	c6.1,0,11-4.9,11-11v-68.8c0-1.1,0.9-2,2-2s2,0.9,2,2v68.8C173.2,180.6,166.4,187.3,158.1,187.3z"/>
<path class="st0" d="M183.2,105H15.5c-1.1,0-2-0.9-2-2s0.9-2,2-2h167.8c1.1,0,2,0.9,2,2S184.4,105,183.2,105z"/>
<path class="st1" d="M171.1,103.5c0,0-13.8-43-71.8-43s-71.8,43-71.8,43H171.1z"/>
<path class="st0" d="M171.1,105.5H27.6c-1.1,0-2-0.8-2.1-1.9c0-0.3,0-0.5,0.1-0.7c0.1-0.5,3.7-11.3,14.6-22.3
	c10-10.1,28.4-22.1,59.1-22.1s49.1,12,59.1,22.1c10.9,11,14.5,21.9,14.6,22.3c0.4,1-0.2,2.2-1.2,2.6
	C171.6,105.5,171.4,105.5,171.1,105.5z M30.6,101.4h137.5c-3.1-6.8-7.4-12.9-12.7-18.2c-9.5-9.5-26.9-20.8-56.1-20.8
	c-16.1,0-38.9,3.6-56.1,20.8C38,88.5,33.7,94.6,30.6,101.4z"/>
<path class="st0" d="M115,48.2H83.8c-1.1,0-2-0.9-2-2c0-1.1,0.9-2,2-2H115c1.1,0,2,0.9,2,2C117,47.3,116.1,48.2,115,48.2z"/>
<path class="st0" d="M85.5,33.5c-1.1,0-2-0.9-2-2V13.2c0-1.1,0.9-2,2-2s2,0.9,2,2v18.3c0,1.1-0.9,2-2,2
	C85.6,33.5,85.6,33.5,85.5,33.5z"/>
<path class="st0" d="M115,33.5c-1.1,0-2-0.9-2-2V13.2c0-1.1,0.9-2,2-2s2,0.9,2,2v18.3c0,1.1-0.9,2-2,2C115.1,33.5,115,33.5,115,33.5
	z"/>
<path class="st0" d="M100.4,33.5c-1.1,0-2-0.9-2-2V5.1c0-1.1,0.9-2,2-2c1.1,0,2,0.9,2,2v26.3c0,1.1-0.9,2-2,2
	C100.5,33.5,100.4,33.5,100.4,33.5z"/>
</svg>
