<?xml version="1.0" encoding="utf-8"?>
<!-- Generator: Adobe Illustrator 21.0.0, SVG Export Plug-In . SVG Version: 6.00 Build 0)  -->
<svg version="1.1" id="Layer_1" xmlns="http://www.w3.org/2000/svg" xmlns:xlink="http://www.w3.org/1999/xlink" x="0px" y="0px"
	 viewBox="0 0 198.5 177.2" style="enable-background:new 0 0 198.5 177.2;" xml:space="preserve">
<style type="text/css">
	.st0{fill:#FFFFFF;}
</style>
<title>Design2</title>
<path class="st0" d="M6.2,116.1c-1.4,0-2.5-1.1-2.5-2.5c0-44.8,31-83.7,74.7-93.7c1.3-0.3,2.7,0.5,3,1.9c0.3,1.3-0.5,2.7-1.9,3
	C38.1,34.3,8.8,71.1,8.8,113.6C8.8,115,7.6,116.1,6.2,116.1z"/>
<path class="st0" d="M193.4,116.1c-1.4,0-2.5-1.1-2.5-2.5c0-42.9-29.9-80-71.9-89.1c-1.4-0.2-2.3-1.5-2.1-2.8
	c0.2-1.4,1.5-2.3,2.8-2.1c0.1,0,0.2,0,0.3,0.1c44.2,9.6,75.8,48.7,75.8,94C195.9,115,194.8,116.1,193.4,116.1z"/>
<path class="st0" d="M111.1,44.7H88.2c-6,0-10.9-4.9-10.9-10.9V11.1C77.3,5,82.3,0,88.4,0h22.7c6,0,10.9,4.9,10.9,10.9v22.9
	C122,39.8,117.1,44.7,111.1,44.7z M88.4,5c-3.4,0-6.1,2.8-6.1,6.1v22.7c0,3.3,2.6,5.9,5.9,5.9h22.9c3.3,0,5.9-2.6,5.9-5.9V10.9
	c0-3.3-2.6-5.9-5.9-5.9H88.4z"/>
<path class="st0" d="M79,24.9H26.7c-1.4,0-2.5-1.1-2.5-2.5s1.1-2.5,2.5-2.5H79c1.4,0,2.5,1.1,2.5,2.5S80.4,24.9,79,24.9z"/>
<path class="st0" d="M143.6,177.2H55c-1.4,0-2.5-1.1-2.5-2.5s1.1-2.5,2.5-2.5h88.6c1.4,0,2.5,1.1,2.5,2.5S145,177.2,143.6,177.2z"/>
<path class="st0" d="M171.8,24.9h-52.3c-1.4,0-2.5-1.1-2.5-2.5s1.1-2.5,2.5-2.5h52.3c1.4,0,2.5,1.1,2.5,2.5S173.2,24.9,171.8,24.9z"
	/>
<path class="st0" d="M14.6,37.5C6.5,37.5,0,31,0,22.9S6.5,8.3,14.6,8.3s14.6,6.5,14.6,14.6C29.2,31,22.7,37.5,14.6,37.5z M14.6,13.3
	c-5.3,0-9.6,4.3-9.6,9.6s4.3,9.6,9.6,9.6s9.6-4.3,9.6-9.6C24.2,17.6,19.9,13.3,14.6,13.3z"/>
<path class="st0" d="M99.6,163.6c-8.1,0-14.6-6.5-14.6-14.6s6.5-14.6,14.6-14.6c8.1,0,14.6,6.5,14.6,14.6
	C114.2,157,107.7,163.6,99.6,163.6z M99.6,139.4c-5.3,0-9.6,4.3-9.6,9.6s4.3,9.6,9.6,9.6c5.3,0,9.6-4.3,9.6-9.6
	C109.3,143.7,105,139.4,99.6,139.4z"/>
<path class="st0" d="M183.9,37.5c-8.1,0-14.6-6.5-14.6-14.6s6.5-14.6,14.6-14.6s14.6,6.5,14.6,14.6C198.5,31,192,37.5,183.9,37.5z
	 M183.9,13.3c-5.3,0-9.6,4.3-9.6,9.6s4.3,9.6,9.6,9.6s9.6-4.3,9.6-9.6C193.5,17.6,189.2,13.3,183.9,13.3z"/>
<path class="st0" d="M71.1,177.2c-1.1,0-2.1-0.8-2.4-1.9L55,122.9c-0.2-0.7-0.1-1.4,0.3-2l41.9-63.3c0.5-0.7,1.2-1.1,2.1-1.1l0,0
	c0.8,0,1.6,0.4,2.1,1.1l42.3,63.6c0.4,0.6,0.5,1.3,0.4,2l-12.9,52.2c-0.3,1.3-1.7,2.2-3,1.8s-2.2-1.7-1.8-3l12.6-51.2L99.3,63.5
	l-39.2,59.2l13.4,51.4c0.3,1.3-0.5,2.7-1.8,3C71.5,177.2,71.3,177.2,71.1,177.2z"/>
<path class="st0" d="M99.3,139.4c-1.4,0-2.5-1.1-2.5-2.5V58.9c0-1.4,1.1-2.5,2.5-2.5s2.5,1.1,2.5,2.5v77.9
	C101.8,138.2,100.7,139.4,99.3,139.4z"/>
</svg>
