<?xml version="1.0" encoding="utf-8"?>
<!-- Generator: Adobe Illustrator 21.1.0, SVG Export Plug-In . SVG Version: 6.00 Build 0)  -->
<svg version="1.1" id="Layer_1" xmlns="http://www.w3.org/2000/svg" xmlns:xlink="http://www.w3.org/1999/xlink" x="0px" y="0px"
	 viewBox="0 0 197.5 176.2" style="enable-background:new 0 0 197.5 176.2;" xml:space="preserve">
<style type="text/css">
	.st0{fill:#333132;}
	.st1{fill:#CB2127;}
</style>
<title>Design1</title>
<path class="st0" d="M5.7,115.1c-1.1,0-2-0.9-2-2c0-44.6,30.8-83.2,74.3-93.2c1.1-0.2,2.1,0.4,2.4,1.5c0.2,1.1-0.4,2.1-1.5,2.4
	C37.3,33.4,7.7,70.4,7.7,113.2C7.7,114.2,6.8,115.1,5.7,115.1z"/>
<path class="st0" d="M192.9,115.1c-1.1,0-2-0.9-2-2c0-43.1-30.1-80.4-72.3-89.5c-1.1-0.3-1.7-1.3-1.5-2.4c0.2-1,1.3-1.7,2.3-1.5
	c44,9.5,75.4,48.4,75.4,93.5C194.9,114.2,194,115.1,192.9,115.1z"/>
<path class="st1" d="M87.9,2h22.7c4.6,0,8.4,3.8,8.4,8.4c0,0,0,0,0,0v22.9c0,4.6-3.8,8.4-8.4,8.4c0,0,0,0,0,0H87.7
	c-4.6,0-8.4-3.8-8.4-8.4v0V10.6C79.3,5.9,83.1,2,87.9,2C87.9,2,87.9,2,87.9,2z"/>
<path class="st0" d="M110.6,43.7H87.7c-5.7,0-10.4-4.7-10.4-10.4V10.6C77.2,4.8,82,0,87.9,0c0,0,0,0,0,0h22.7
	c5.7,0,10.4,4.7,10.4,10.4v22.9C121,39,116.4,43.7,110.6,43.7C110.6,43.7,110.6,43.7,110.6,43.7z M87.9,3.9c-3.7,0-6.6,3-6.6,6.6
	v22.7c0,3.5,2.9,6.4,6.4,6.4h22.9c3.5,0,6.4-2.9,6.4-6.4V10.4c0-3.5-2.9-6.4-6.4-6.4L87.9,3.9L87.9,3.9z"/>
<path class="st0" d="M78.5,23.9H26.2c-1.1,0-2-0.9-2-2s0.9-2,2-2h52.3c1.1,0,2,0.9,2,2S79.6,23.9,78.5,23.9z"/>
<path class="st0" d="M143.1,176.2H54.5c-1.1,0-2-0.9-2-2s0.9-2,2-2h88.6c1.1,0,2,0.9,2,2S144.2,176.2,143.1,176.2z"/>
<path class="st0" d="M171.3,23.9H119c-1.1,0-2-0.9-2-2s0.9-2,2-2h52.3c1.1,0,2,0.9,2,2S172.4,23.9,171.3,23.9z"/>
<circle class="st1" cx="14.1" cy="22.4" r="12.1"/>
<path class="st0" d="M14.1,36.5C6.3,36.5,0,30.2,0,22.4S6.3,8.3,14.1,8.3c7.8,0,14.1,6.3,14.1,14.1C28.2,30.2,21.9,36.5,14.1,36.5z
	 M14.1,12.3C8.5,12.3,4,16.8,4,22.4s4.5,10.1,10.1,10.1S24.2,28,24.2,22.4C24.2,16.8,19.7,12.3,14.1,12.3z"/>
<circle class="st1" cx="99.1" cy="148.5" r="12.1"/>
<path class="st0" d="M99.1,162.6c-7.8,0-14.1-6.3-14.1-14.1s6.3-14.1,14.1-14.1c7.8,0,14.1,6.3,14.1,14.1
	C113.2,156.3,106.9,162.6,99.1,162.6z M99.1,138.4c-5.6,0-10.1,4.5-10.1,10.1s4.5,10.1,10.1,10.1c5.6,0,10.1-4.5,10.1-10.1
	C109.3,142.9,104.7,138.4,99.1,138.4z"/>
<circle class="st1" cx="183.4" cy="22.4" r="12.1"/>
<path class="st0" d="M183.4,36.5c-7.8,0-14.1-6.3-14.1-14.1s6.3-14.1,14.1-14.1c7.8,0,14.1,6.3,14.1,14.1
	C197.5,30.2,191.2,36.5,183.4,36.5z M183.4,12.3c-5.6,0-10.1,4.5-10.1,10.1s4.5,10.1,10.1,10.1s10.1-4.5,10.1-10.1
	C193.5,16.8,189,12.3,183.4,12.3z"/>
<path class="st0" d="M70.6,176.2c-0.9,0-1.7-0.6-1.9-1.5L55,122.2c-0.1-0.6,0-1.1,0.3-1.6l41.9-63.3c0.4-0.6,1-0.9,1.7-0.9l0,0
	c0.7,0,1.3,0.3,1.7,0.9l42.3,63.6c0.3,0.5,0.4,1,0.3,1.6l-12.9,52.2c-0.3,1.1-1.4,1.7-2.4,1.4s-1.7-1.4-1.4-2.4l12.7-51.4L98.8,62
	l-39.7,60l13.5,51.6c0.3,1.1-0.3,2.2-1.3,2.5C71.1,176.2,70.9,176.2,70.6,176.2z"/>
<path class="st0" d="M98.8,138.4c-1.1,0-2-0.9-2-2V58.4c0-1.1,0.9-2,2-2s2,0.9,2,2v77.9C100.8,137.5,99.9,138.4,98.8,138.4z"/>
</svg>
