<svg id="Layer_1" data-name="Layer 1" xmlns="http://www.w3.org/2000/svg" viewBox="0 0 198.54 177.24"><defs><style>.cls-1{fill:#333132;}</style></defs><title>Design2</title><path class="cls-1" d="M3120.15,1018.66a2.5,2.5,0,0,1-2.5-2.5,96.12,96.12,0,0,1,74.7-93.7,2.5,2.5,0,1,1,1.11,4.88,91.12,91.12,0,0,0-70.81,88.82A2.5,2.5,0,0,1,3120.15,1018.66Z" transform="translate(-3113.9 -902.55)"/><path class="cls-1" d="M3307.32,1018.66a2.5,2.5,0,0,1-2.5-2.5,91.12,91.12,0,0,0-71.89-89.06,2.5,2.5,0,1,1,1-4.89,96.12,96.12,0,0,1,75.84,93.95A2.5,2.5,0,0,1,3307.32,1018.66Z" transform="translate(-3113.9 -902.55)"/><path class="cls-1" d="M3225,947.26h-22.93a10.91,10.91,0,0,1-10.9-10.9V913.69a11.15,11.15,0,0,1,11.14-11.14H3225a10.91,10.91,0,0,1,10.9,10.9v22.92A10.91,10.91,0,0,1,3225,947.26Zm-22.69-39.71a6.15,6.15,0,0,0-6.14,6.14v22.67a5.91,5.91,0,0,0,5.9,5.9H3225a5.91,5.91,0,0,0,5.9-5.9V913.45a5.91,5.91,0,0,0-5.9-5.9h-22.69Z" transform="translate(-3113.9 -902.55)"/><path class="cls-1" d="M3192.9,927.4h-52.29a2.5,2.5,0,0,1,0-5h52.29A2.5,2.5,0,0,1,3192.9,927.4Z" transform="translate(-3113.9 -902.55)"/><path class="cls-1" d="M3257.5,1079.79h-88.58a2.5,2.5,0,0,1,0-5h88.58A2.5,2.5,0,0,1,3257.5,1079.79Z" transform="translate(-3113.9 -902.55)"/><path class="cls-1" d="M3285.7,927.4h-52.29a2.5,2.5,0,0,1,0-5h52.29A2.5,2.5,0,0,1,3285.7,927.4Z" transform="translate(-3113.9 -902.55)"/><path class="cls-1" d="M3128.52,940.1a14.62,14.62,0,1,1,14.62-14.62A14.64,14.64,0,0,1,3128.52,940.1Zm0-24.24a9.62,9.62,0,1,0,9.62,9.62A9.63,9.63,0,0,0,3128.52,915.86Z" transform="translate(-3113.9 -902.55)"/><path class="cls-1" d="M3213.54,1066.15a14.62,14.62,0,1,1,14.62-14.62A14.64,14.64,0,0,1,3213.54,1066.15Zm0-24.24a9.62,9.62,0,1,0,9.62,9.62A9.63,9.63,0,0,0,3213.54,1041.91Z" transform="translate(-3113.9 -902.55)"/><path class="cls-1" d="M3297.82,940.1a14.62,14.62,0,1,1,14.62-14.62A14.64,14.64,0,0,1,3297.82,940.1Zm0-24.24a9.62,9.62,0,1,0,9.62,9.62A9.63,9.63,0,0,0,3297.82,915.86Z" transform="translate(-3113.9 -902.55)"/><path class="cls-1" d="M3185,1079.79a2.5,2.5,0,0,1-2.42-1.87l-13.7-52.51a2.5,2.5,0,0,1,.33-2l41.87-63.3a2.5,2.5,0,0,1,2.08-1.12h0a2.5,2.5,0,0,1,2.08,1.12l42.26,63.58a2.5,2.5,0,0,1,.35,2L3245,1077.89a2.5,2.5,0,0,1-4.86-1.2l12.62-51.17L3213.21,966,3174,1025.23l13.42,51.43A2.5,2.5,0,0,1,3185,1079.79Z" transform="translate(-3113.9 -902.55)"/><path class="cls-1" d="M3213.21,1041.91a2.5,2.5,0,0,1-2.5-2.5V961.48a2.5,2.5,0,0,1,5,0v77.93A2.5,2.5,0,0,1,3213.21,1041.91Z" transform="translate(-3113.9 -902.55)"/></svg>