<?xml version="1.0" encoding="utf-8"?>
<!-- Generator: Adobe Illustrator 21.1.0, SVG Export Plug-In . SVG Version: 6.00 Build 0)  -->
<svg version="1.1" id="Layer_1" xmlns="http://www.w3.org/2000/svg" xmlns:xlink="http://www.w3.org/1999/xlink" x="0px" y="0px"
	 viewBox="0 0 199.6 190.5" style="enable-background:new 0 0 199.6 190.5;" xml:space="preserve">
<style type="text/css">
	.st0{fill:#CB2127;}
	.st1{fill:#333132;}
</style>
<title>Trading</title>
<path class="st0" d="M169.2,41.5l-41.3,58.1c-1.4,1.9-3.6,3.1-6,3.1H63.1l-42.6,77.9c-2.4,3.3-6.9,4-10.2,1.7
	c-3.3-2.4-4-6.9-1.7-10.2L53.4,91c1.4-1.9,3.6-3,5.9-3h58.9l40.2-56.6"/>
<path class="st1" d="M14.5,185.5c-5.1,0-9.3-4.2-9.3-9.3c0-1.9,0.6-3.8,1.7-5.3l44.8-80.8l0.1-0.2c1.8-2.4,4.6-3.9,7.6-3.9h57.8
	l39.6-55.7c0.8-0.8,2-0.8,2.8-0.1c0.7,0.6,0.8,1.6,0.4,2.4l-40.2,56.6c-0.4,0.5-1,0.8-1.6,0.8H59.4c-1.7,0-3.2,0.8-4.2,2.1
	l-44.8,80.8l-0.1,0.2c-1.7,2.4-1.2,5.7,1.1,7.4c2.4,1.7,5.7,1.2,7.4-1.1l0,0l42.6-77.7c0.4-0.6,1-1,1.8-1H122c1.7,0,3.3-0.8,4.3-2.2
	l41.3-58.1c0.6-0.9,1.9-1.1,2.8-0.5s1.1,1.9,0.5,2.8l-41.3,58.1c-1.7,2.5-4.6,3.9-7.6,3.9H64.3l-42.1,76.8c0,0.1-0.1,0.1-0.1,0.2
	C20.4,184.1,17.5,185.5,14.5,185.5z"/>
<path class="st0" d="M140.5,28l37.7,28.7c0,0,7.6,5.2,8.2-4.6s2.1-39,2.1-39s0.4-8.4-7.6-5.8l-36.2,11.8
	C144.6,19.2,133.7,22.8,140.5,28z"/>
<path class="st1" d="M182.2,60.1c-1.9-0.1-3.7-0.7-5.2-1.8l-37.7-28.8l0,0c-2.9-2.2-3.2-4.3-2.9-5.7c0.7-4,6.5-6.2,7.7-6.5
	l36.2-11.9c3-1,5.5-0.8,7.3,0.6c3,2.3,2.9,6.6,2.8,7.1c0,0.3-1.4,29.3-2.1,39c-0.2,3.8-1.5,6.2-3.7,7.3
	C183.9,59.9,183.1,60.1,182.2,60.1z M179.3,55.1c0.8,0.5,2.6,1.4,3.6,0.9c0.8-0.4,1.3-1.8,1.4-4c0.6-9.7,2-38.7,2.1-39
	c0-0.7-0.1-2.9-1.3-3.8c-0.9-0.7-2.5-0.4-3.7,0l-36.2,11.9c-2.2,0.7-4.8,2.3-5,3.4c-0.1,0.4,0.4,1.1,1.4,1.9L179.3,55.1z"/>
<path class="st1" d="M76,185.5h-5.5c-5.1,0-9.2-4.1-9.2-9.2v-36.5c0-5.1,4.1-9.2,9.2-9.2H76c5.1,0,9.2,4.1,9.2,9.2v36.5
	C85.2,181.4,81.1,185.5,76,185.5z M70.5,134.6c-2.9,0-5.2,2.3-5.2,5.2v36.5c0,2.9,2.3,5.2,5.2,5.2H76c2.9,0,5.2-2.3,5.2-5.2v-36.5
	c0-2.9-2.3-5.2-5.2-5.2L70.5,134.6L70.5,134.6z"/>
<path class="st1" d="M129.6,185.5h-5.5c-5.1,0-9.2-4.1-9.2-9.2v-43.1c0-5.1,4.1-9.2,9.2-9.2h5.5c5.1,0,9.2,4.1,9.2,9.2v43.1
	C138.8,181.4,134.7,185.5,129.6,185.5z M124.2,128c-2.9,0-5.2,2.3-5.2,5.2v43.1c0,2.9,2.3,5.2,5.2,5.2h5.5c2.9,0,5.2-2.3,5.2-5.2
	v-43.1c0-2.9-2.3-5.2-5.2-5.2L124.2,128L124.2,128z"/>
<path class="st1" d="M182.7,185.5h-5.5c-5.1,0-9.2-4.1-9.2-9.2V88.9c0-5.1,4.1-9.2,9.2-9.2h5.5c5.1,0,9.2,4.1,9.2,9.2v87.4
	C191.9,181.4,187.8,185.5,182.7,185.5z M177.2,83.7c-2.9,0-5.2,2.3-5.2,5.2v87.4c0,2.9,2.3,5.2,5.2,5.2h5.5c2.9,0,5.2-2.3,5.2-5.2
	V88.9c0-2.9-2.3-5.2-5.2-5.2C182.7,83.7,177.2,83.7,177.2,83.7z"/>
</svg>
