<svg id="Layer_1" data-name="Layer 1" xmlns="http://www.w3.org/2000/svg" viewBox="0 0 199.6 190.53"><defs><style>.cls-1{fill:#333132;}</style></defs><title>Trading</title><path class="cls-1" d="M13.79,185.53a9.31,9.31,0,0,1-7.63-14.65l44.75-80.8,0.13-.2A9.33,9.33,0,0,1,58.61,86h57.81l33.89-48a2,2,0,0,1,3.27,2.31L119.09,89.16a2,2,0,0,1-1.63.85H58.61a5.33,5.33,0,0,0-4.25,2.12L9.61,172.92l-0.13.2a5.31,5.31,0,0,0,4.31,8.42A5.33,5.33,0,0,0,18,179.41L60.6,101.68a2,2,0,0,1,1.75-1h58.88a5.32,5.32,0,0,0,4.33-2.24L162.07,47a2,2,0,1,1,3.26,2.32l-36.51,51.39a9.33,9.33,0,0,1-7.59,3.92H63.54L21.49,181.45a1.8,1.8,0,0,1-.13.21A9.34,9.34,0,0,1,13.79,185.53Z"/><path class="cls-1" d="M181.45,60.13a10.14,10.14,0,0,1-5.2-1.75L138.52,29.59h0c-2.85-2.17-3.16-4.31-2.93-5.71,0.67-4,6.51-6.16,7.67-6.55L179.48,5.47c3-1,5.48-.77,7.34.64,3,2.28,2.86,6.63,2.84,7.12,0,0.29-1.43,29.29-2.06,39-0.24,3.79-1.49,6.25-3.7,7.33A5.57,5.57,0,0,1,181.45,60.13Zm-2.9-5c0.77,0.51,2.61,1.37,3.61.88,0.78-.38,1.31-1.83,1.45-4,0.62-9.72,2-38.68,2.05-39,0-.7-0.15-2.9-1.28-3.75-0.93-.7-2.5-0.4-3.66,0L144.52,21.12c-2.21.74-4.8,2.32-5,3.41-0.07.44,0.45,1.14,1.41,1.87Z"/><path class="cls-1" d="M75.24,185.53H69.77a9.21,9.21,0,0,1-9.2-9.2V139.82a9.21,9.21,0,0,1,9.2-9.2h5.47a9.21,9.21,0,0,1,9.2,9.2v36.51A9.21,9.21,0,0,1,75.24,185.53Zm-5.47-50.91a5.21,5.21,0,0,0-5.2,5.2v36.51a5.21,5.21,0,0,0,5.2,5.2h5.47a5.21,5.21,0,0,0,5.2-5.2V139.82a5.21,5.21,0,0,0-5.2-5.2H69.77Z"/><path class="cls-1" d="M128.88,185.53h-5.47a9.21,9.21,0,0,1-9.2-9.2V133.22a9.21,9.21,0,0,1,9.2-9.2h5.47a9.21,9.21,0,0,1,9.2,9.2v43.11A9.21,9.21,0,0,1,128.88,185.53ZM123.41,128a5.21,5.21,0,0,0-5.2,5.2v43.11a5.21,5.21,0,0,0,5.2,5.2h5.47a5.21,5.21,0,0,0,5.2-5.2V133.22a5.21,5.21,0,0,0-5.2-5.2h-5.47Z"/><path class="cls-1" d="M181.93,185.53h-5.47a9.21,9.21,0,0,1-9.2-9.2V88.91a9.21,9.21,0,0,1,9.2-9.2h5.47a9.21,9.21,0,0,1,9.2,9.2v87.42A9.21,9.21,0,0,1,181.93,185.53ZM176.46,83.71a5.21,5.21,0,0,0-5.2,5.2v87.42a5.21,5.21,0,0,0,5.2,5.2h5.47a5.21,5.21,0,0,0,5.2-5.2V88.91a5.21,5.21,0,0,0-5.2-5.2h-5.47Z"/></svg>