<?xml version="1.0" encoding="utf-8"?>
<!-- Generator: Adobe Illustrator 21.0.0, SVG Export Plug-In . SVG Version: 6.00 Build 0)  -->
<svg version="1.1" id="Layer_1" xmlns="http://www.w3.org/2000/svg" xmlns:xlink="http://www.w3.org/1999/xlink" x="0px" y="0px"
	 viewBox="0 0 199.6 190.5" style="enable-background:new 0 0 199.6 190.5;" xml:space="preserve">
<style type="text/css">
	.st0{fill:#FFFFFF;}
</style>
<title>Trading</title>
<path class="st0" d="M13.8,185.5c-5.1,0-9.3-4.2-9.3-9.3c0-1.9,0.6-3.8,1.7-5.3l44.8-80.8l0.1-0.2c1.8-2.4,4.6-3.9,7.6-3.9h57.8
	l33.9-48c0.6-0.9,1.9-1.1,2.8-0.5c0.9,0.6,1.1,1.9,0.5,2.8l0,0l-34.5,48.9c-0.4,0.5-1,0.8-1.6,0.8H58.6c-1.7,0-3.2,0.8-4.2,2.1
	L9.6,172.9l-0.1,0.2c-1.7,2.4-1.2,5.7,1.2,7.4c0.9,0.7,2,1,3.1,1c1.7,0,3.2-0.8,4.2-2.1l42.6-77.7c0.4-0.6,1-1,1.8-1h58.9
	c1.7,0,3.3-0.8,4.3-2.2L162.1,47c0.6-0.9,1.9-1.1,2.8-0.5s1.1,1.9,0.5,2.8l-36.5,51.4c-1.7,2.5-4.6,3.9-7.6,3.9H63.5l-42.1,76.8
	c0,0.1-0.1,0.1-0.1,0.2C19.6,184.1,16.8,185.5,13.8,185.5z"/>
<path class="st0" d="M181.4,60.1c-1.9-0.1-3.7-0.7-5.2-1.8l-37.7-28.8l0,0c-2.9-2.2-3.2-4.3-2.9-5.7c0.7-4,6.5-6.2,7.7-6.5
	l36.2-11.9c3-1,5.5-0.8,7.3,0.6c3,2.3,2.9,6.6,2.8,7.1c0,0.3-1.4,29.3-2.1,39c-0.2,3.8-1.5,6.2-3.7,7.3
	C183.1,59.9,182.3,60.1,181.4,60.1z M178.6,55.1c0.8,0.5,2.6,1.4,3.6,0.9c0.8-0.4,1.3-1.8,1.4-4c0.6-9.7,2-38.7,2.1-39
	c0-0.7-0.1-2.9-1.3-3.8c-0.9-0.7-2.5-0.4-3.7,0l-36.2,11.9c-2.2,0.7-4.8,2.3-5,3.4c-0.1,0.4,0.4,1.1,1.4,1.9L178.6,55.1z"/>
<path class="st0" d="M75.2,185.5h-5.5c-5.1,0-9.2-4.1-9.2-9.2v-36.5c0-5.1,4.1-9.2,9.2-9.2h5.5c5.1,0,9.2,4.1,9.2,9.2v36.5
	C84.4,181.4,80.3,185.5,75.2,185.5z M69.8,134.6c-2.9,0-5.2,2.3-5.2,5.2v36.5c0,2.9,2.3,5.2,5.2,5.2h5.5c2.9,0,5.2-2.3,5.2-5.2
	v-36.5c0-2.9-2.3-5.2-5.2-5.2L69.8,134.6L69.8,134.6z"/>
<path class="st0" d="M128.9,185.5h-5.5c-5.1,0-9.2-4.1-9.2-9.2v-43.1c0-5.1,4.1-9.2,9.2-9.2h5.5c5.1,0,9.2,4.1,9.2,9.2v43.1
	C138.1,181.4,134,185.5,128.9,185.5z M123.4,128c-2.9,0-5.2,2.3-5.2,5.2v43.1c0,2.9,2.3,5.2,5.2,5.2h5.5c2.9,0,5.2-2.3,5.2-5.2
	v-43.1c0-2.9-2.3-5.2-5.2-5.2L123.4,128L123.4,128z"/>
<path class="st0" d="M181.9,185.5h-5.5c-5.1,0-9.2-4.1-9.2-9.2V88.9c0-5.1,4.1-9.2,9.2-9.2h5.5c5.1,0,9.2,4.1,9.2,9.2v87.4
	C191.1,181.4,187,185.5,181.9,185.5z M176.5,83.7c-2.9,0-5.2,2.3-5.2,5.2v87.4c0,2.9,2.3,5.2,5.2,5.2h5.5c2.9,0,5.2-2.3,5.2-5.2
	V88.9c0-2.9-2.3-5.2-5.2-5.2C181.9,83.7,176.5,83.7,176.5,83.7z"/>
</svg>
