<?xml version="1.0" encoding="utf-8"?>
<!-- Generator: Adobe Illustrator 21.1.0, SVG Export Plug-In . SVG Version: 6.00 Build 0)  -->
<svg version="1.1" id="Layer_1" xmlns="http://www.w3.org/2000/svg" xmlns:xlink="http://www.w3.org/1999/xlink" x="0px" y="0px"
	 viewBox="0 0 199.6 190.5" style="enable-background:new 0 0 199.6 190.5;" xml:space="preserve">
<style type="text/css">
	.st0{fill:#CB2127;}
	.st1{fill:#333132;}
	.st2{fill:#FFFFFF;}
</style>
<title>1</title>
<path class="st0" d="M12.9,28.2h175c4,0,7.2,3.2,7.2,7.2v123.3c0,4-3.2,7.2-7.2,7.2h-175c-4,0-7.2-3.2-7.2-7.2V35.4
	C5.7,31.4,8.9,28.2,12.9,28.2z"/>
<path class="st1" d="M188.5,167.6H12.2c-4.6,0-8.4-3.8-8.4-8.4V34.7c0-4.6,3.8-8.4,8.4-8.4h176.2c4.6,0,8.4,3.8,8.4,8.4v124.6
	C196.8,163.9,193.1,167.6,188.5,167.6z M12.2,30c-2.6,0-4.7,2.1-4.7,4.7v124.6c0,2.6,2.1,4.7,4.7,4.7h176.2c2.6,0,4.7-2.1,4.7-4.7
	V34.7c0-2.6-2.1-4.7-4.7-4.7H12.2z"/>
<path class="st2" d="M16.4,24h74.3c0,0,8.6,1,10,5.9c1.8-3.7,5.6-6,9.8-5.9H184v129.4h-73.6c0,0-3-2-10.2,5.2
	c-2.9-3.4-7.2-5.3-11.6-5.2H16.4V24z"/>
<path class="st1" d="M100.2,160.5h-0.1c-0.5,0-1-0.3-1.3-0.7c-2.6-2.9-6.3-4.5-10.2-4.5H16.4c-1,0-1.8-0.8-1.8-1.8l0,0V24
	c0-1,0.8-1.8,1.8-1.8h74.5c0.8,0.1,6.7,0.9,9.9,4.3c2.4-2.8,6-4.4,9.7-4.3H184c1,0,1.8,0.8,1.8,1.8c0,0,0,0,0,0v129.4
	c0,1-0.8,1.8-1.8,1.8h0h-73.6c-0.3,0-0.6-0.1-0.9-0.2c-0.7-0.2-3.4,0.2-8.1,4.9C101.1,160.3,100.7,160.5,100.2,160.5z M18.2,151.6
	h70.4c4.3,0,8.5,1.6,11.7,4.5c5.8-5.2,9.2-5,10.6-4.5h71.4V25.8h-71.8c-3.4-0.1-6.5,1.7-8.1,4.8c-0.4,0.9-1.4,1.4-2.4,1
	c-0.5-0.2-0.9-0.6-1.1-1.2c-0.9-3-6.4-4.3-8.4-4.6H18.2L18.2,151.6L18.2,151.6z M109.4,155L109.4,155z M109.4,155L109.4,155z"/>
<path class="st1" d="M83.5,60.3H33.3c-1.3-0.1-2.2-1.2-2.1-2.4c0.1-1.1,1-2,2.1-2.1h50.2c1.3-0.1,2.3,0.9,2.4,2.1s-0.9,2.3-2.1,2.4
	C83.7,60.3,83.6,60.3,83.5,60.3z"/>
<path class="st1" d="M83.5,91.5H33.3c-1.3,0.1-2.3-0.9-2.4-2.1c-0.1-1.3,0.9-2.3,2.1-2.4c0.1,0,0.2,0,0.3,0h50.2
	c1.3-0.1,2.3,0.9,2.4,2.1c0.1,1.3-0.9,2.3-2.1,2.4C83.7,91.5,83.6,91.5,83.5,91.5z"/>
<path class="st1" d="M83.5,123H33.3c-1.3-0.1-2.2-1.2-2.1-2.4c0.1-1.1,1-2,2.1-2.1h50.2c1.3,0.1,2.2,1.2,2.1,2.4
	C85.6,122,84.7,122.9,83.5,123z"/>
<path class="st1" d="M167.4,60.3h-50.2c-1.3-0.1-2.2-1.2-2.1-2.4c0.1-1.1,1-2,2.1-2.1h50.2c1.3-0.1,2.3,0.9,2.4,2.1
	c0.1,1.3-0.9,2.3-2.1,2.4C167.7,60.3,167.6,60.3,167.4,60.3z"/>
<path class="st1" d="M167.4,91.5h-50.2c-1.3-0.1-2.2-1.2-2.1-2.4c0.1-1.1,1-2,2.1-2.1h50.2c1.3-0.1,2.3,0.9,2.4,2.1
	c0.1,1.3-0.9,2.3-2.1,2.4C167.7,91.5,167.6,91.5,167.4,91.5z"/>
<path class="st1" d="M167.4,123h-50.2c-1.3-0.1-2.2-1.2-2.1-2.4c0.1-1.1,1-2,2.1-2.1h50.2c1.3,0.1,2.2,1.2,2.1,2.4
	C169.5,122,168.6,122.9,167.4,123z"/>
</svg>
