<?xml version="1.0" encoding="utf-8"?>
<!-- Generator: Adobe Illustrator 21.0.0, SVG Export Plug-In . SVG Version: 6.00 Build 0)  -->
<svg version="1.1" id="Layer_1" xmlns="http://www.w3.org/2000/svg" xmlns:xlink="http://www.w3.org/1999/xlink" x="0px" y="0px"
	 viewBox="0 0 199.6 190.5" style="enable-background:new 0 0 199.6 190.5;" xml:space="preserve">
<style type="text/css">
	.st0{fill:#FFFFFF;}
	.st1{fill:none;}
</style>
<title>1</title>
<path class="st0" d="M187.9,167.6H11.7c-4.6,0-8.4-3.8-8.4-8.4V34.7c0-4.6,3.8-8.4,8.4-8.4h176.2c4.6,0,8.4,3.8,8.4,8.4v124.6
	C196.3,163.9,192.5,167.6,187.9,167.6z M11.7,30C9.1,30,7,32.1,7,34.7v124.6c0,2.6,2.1,4.7,4.7,4.7h176.2c2.6,0,4.7-2.1,4.7-4.7
	V34.7c0-2.6-2.1-4.7-4.7-4.7H11.7z"/>
<path class="st1" d="M15.8,24h74.3c0,0,8.6,1,10,5.9c1.8-3.7,5.6-6,9.8-5.9h73.6v129.4h-73.6c0,0-3-2-10.2,5.2
	c-2.9-3.4-7.2-5.3-11.7-5.2H15.8V24z"/>
<path class="st0" d="M99.7,160.5L99.7,160.5c-0.6,0-1.1-0.3-1.4-0.7c-2.6-2.9-6.3-4.6-10.2-4.5H15.8c-1,0-1.8-0.8-1.8-1.8V24
	c0-1,0.8-1.8,1.8-1.8h74.5c0.8,0.1,6.7,0.9,9.9,4.3c2.4-2.8,6-4.4,9.7-4.3h73.6c1,0,1.8,0.8,1.8,1.8l0,0v129.4c0,1-0.8,1.8-1.8,1.8
	l0,0h-73.6c-0.3,0-0.6-0.1-0.9-0.3c-0.7-0.2-3.4,0.2-8.1,4.9C100.6,160.2,100.1,160.5,99.7,160.5z M17.7,151.6H88
	c4.3,0,8.5,1.6,11.7,4.5c5.8-5.2,9.2-5,10.6-4.5h71.4V25.8h-71.8c-3.4-0.1-6.6,1.7-8.1,4.8c-0.4,0.9-1.5,1.4-2.4,1
	c-0.5-0.2-0.9-0.6-1-1.2c-0.9-3-6.4-4.3-8.4-4.6H17.6L17.7,151.6L17.7,151.6z M108.9,155L108.9,155z M108.9,155L108.9,155z"/>
<path class="st0" d="M83,60.3H32.8c-1.3,0.1-2.3-0.9-2.4-2.1c-0.1-1.3,0.9-2.3,2.1-2.4c0.1,0,0.2,0,0.3,0H83
	c1.3,0.1,2.2,1.2,2.1,2.4C85,59.3,84.1,60.2,83,60.3z"/>
<path class="st0" d="M83,91.5H32.8c-1.3,0.1-2.3-0.9-2.4-2.1c-0.1-1.3,0.9-2.3,2.1-2.4c0.1,0,0.2,0,0.3,0H83
	c1.3,0.1,2.2,1.2,2.1,2.4C85,90.5,84.1,91.5,83,91.5z"/>
<path class="st0" d="M83,123H32.8c-1.3-0.1-2.2-1.2-2.1-2.4c0.1-1.1,1-2,2.1-2.1H83c1.3,0.1,2.2,1.2,2.1,2.4
	C85,122,84.1,122.9,83,123z"/>
<path class="st0" d="M166.9,60.3h-50.2c-1.3,0.1-2.3-0.9-2.4-2.1s0.9-2.3,2.1-2.4c0.1,0,0.2,0,0.3,0h50.2c1.3-0.1,2.3,0.9,2.4,2.1
	c0.1,1.3-0.9,2.3-2.1,2.4C167.1,60.3,167,60.3,166.9,60.3z"/>
<path class="st0" d="M166.9,91.5h-50.2c-1.3,0.1-2.3-0.9-2.4-2.1c-0.1-1.3,0.9-2.3,2.1-2.4c0.1,0,0.2,0,0.3,0h50.2
	c1.3-0.1,2.3,0.9,2.4,2.1c0.1,1.3-0.9,2.3-2.1,2.4C167.1,91.5,167,91.5,166.9,91.5z"/>
<path class="st0" d="M166.9,123h-50.2c-1.3,0.1-2.3-0.9-2.4-2.1c-0.1-1.3,0.9-2.3,2.1-2.4c0.1,0,0.2,0,0.3,0h50.2
	c1.3,0.1,2.2,1.2,2.1,2.4C169,122,168.1,122.9,166.9,123z"/>
</svg>
