<svg id="Layer_1" data-name="Layer 1" xmlns="http://www.w3.org/2000/svg" viewBox="0 0 199.6 190.53"><defs><style>.cls-1{fill:#333132;}.cls-2{fill:#fff;}</style></defs><title>1</title><path class="cls-1" d="M187.92,167.65H11.68a8.39,8.39,0,0,1-8.38-8.38V34.73a8.39,8.39,0,0,1,8.38-8.38H187.92a8.39,8.39,0,0,1,8.38,8.38V159.28A8.39,8.39,0,0,1,187.92,167.65ZM11.68,30a4.74,4.74,0,0,0-4.73,4.73V159.28A4.74,4.74,0,0,0,11.68,164H187.92a4.74,4.74,0,0,0,4.73-4.73V34.73A4.74,4.74,0,0,0,187.92,30H11.68Z"/><path class="cls-2" d="M15.81,24H90.1s8.63,1,10,5.9a10.5,10.5,0,0,1,9.75-5.9h73.59V153.44H109.89s-3-2-10.24,5.21A15.23,15.23,0,0,0,88,153.44H15.81V24Z"/><path class="cls-1" d="M99.65,160.47H99.53a1.82,1.82,0,0,1-1.33-.71A13.33,13.33,0,0,0,88,155.26H15.81A1.82,1.82,0,0,1,14,153.44V24a1.82,1.82,0,0,1,1.82-1.82H90.32c0.81,0.1,6.74.92,9.89,4.3a12.27,12.27,0,0,1,9.68-4.31h73.59A1.82,1.82,0,0,1,185.3,24V153.44a1.82,1.82,0,0,1-1.82,1.82H109.89A1.82,1.82,0,0,1,109,155c-0.69-.22-3.41.22-8.09,4.89A1.82,1.82,0,0,1,99.65,160.47Zm-82-8.85H88a17.25,17.25,0,0,1,11.68,4.46c5.76-5.25,9.18-5,10.58-4.46h71.39V25.78H109.89a8.67,8.67,0,0,0-8.07,4.79,1.82,1.82,0,0,1-3.42-.2c-0.87-3-6.39-4.32-8.41-4.59H17.63V151.62ZM108.89,155h0Zm0,0h0Z"/><path class="cls-1" d="M83,60.32H32.81a2.28,2.28,0,1,1,0-4.55H83A2.28,2.28,0,0,1,83,60.32Z"/><path class="cls-1" d="M83,91.53H32.81a2.28,2.28,0,1,1,0-4.55H83A2.28,2.28,0,0,1,83,91.53Z"/><path class="cls-1" d="M83,123H32.81a2.28,2.28,0,0,1,0-4.55H83A2.28,2.28,0,0,1,83,123Z"/><path class="cls-1" d="M166.91,60.32H116.73a2.28,2.28,0,1,1,0-4.55h50.18A2.28,2.28,0,1,1,166.91,60.32Z"/><path class="cls-1" d="M166.91,91.53H116.73a2.28,2.28,0,1,1,0-4.55h50.18A2.28,2.28,0,1,1,166.91,91.53Z"/><path class="cls-1" d="M166.91,123H116.73a2.28,2.28,0,1,1,0-4.55h50.18A2.28,2.28,0,0,1,166.91,123Z"/></svg>