<?xml version="1.0" encoding="utf-8"?>
<!-- Generator: Adobe Illustrator 21.1.0, SVG Export Plug-In . SVG Version: 6.00 Build 0)  -->
<svg version="1.1" id="Layer_1" xmlns="http://www.w3.org/2000/svg" xmlns:xlink="http://www.w3.org/1999/xlink" x="0px" y="0px"
	 viewBox="0 0 199.6 190.5" style="enable-background:new 0 0 199.6 190.5;" xml:space="preserve">
<style type="text/css">
	.st0{fill:#CB2127;}
	.st1{fill:#333132;}
	.st2{fill:none;}
</style>
<title>1</title>
<path class="st0" d="M75.7,29.3C42.9,27.5,5.8,18.9,5.3,65s34.2,38.2,66.7,38.6L75.7,29.3z"/>
<path class="st1" d="M141.4,132.9c-0.5,0-1-0.2-1.4-0.6c-5.6-5.7-35.4-25.9-68-26.3c-4.3-0.1-8.7,0-12.9,0.1
	c-18.3,0.4-35.6,0.8-46.1-9.7c-6.6-6.6-9.8-16.8-9.6-31.1C3.5,51.2,7,41.2,14,34.8C25.8,24,45.6,25.5,64.8,27
	c3.6,0.3,7.4,0.6,11,0.8c31.8,1.7,66.2-24.6,66.6-24.9c0.9-0.7,2.1-0.5,2.8,0.4c0.2,0.3,0.4,0.7,0.4,1.2L143.3,131
	C143.3,132.1,142.4,132.9,141.4,132.9z M69.4,102H72c29.6,0.4,57.1,16.6,67.4,24.7l2.1-118.3c-6,4.1-12.2,7.9-18.7,11.2
	C110.9,25.6,93,32.7,75.6,31.7c-3.7-0.2-7.5-0.5-11.1-0.8c-18.3-1.4-37.3-2.9-47.8,6.7c-6.2,5.7-9.2,14.7-9.4,27.7
	c-0.2,13.2,2.6,22.5,8.5,28.3c9.4,9.3,25.8,8.9,43.2,8.6C62.4,102.1,65.9,102,69.4,102z"/>
<path class="st0" d="M22.3,100.4l33.1,77.8c0,0,5.3,12.7,17,7.3L84,180c0,0,9.4-4.2,5.2-13.8l-25-62.2
	C64.2,104,32.7,106.3,22.3,100.4z"/>
<path class="st1" d="M66.8,188.8c-1.5,0-3-0.3-4.3-0.8c-6-2.3-8.8-8.8-8.9-9L18.2,95.8l5.1,2.9c9.8,5.5,40.5,3.5,40.8,3.4l1.4-0.1
	L91,165.5c4.9,11.2-6.1,16.3-6.2,16.3l-11.6,5.4C71.2,188.2,69,188.7,66.8,188.8z M26,103.9l31.2,73.5c0,0.1,2.3,5.2,6.7,6.9
	c2.5,0.9,5.3,0.6,7.6-0.6l11.6-5.5c0.8-0.4,7.5-3.7,4.2-11.2l-24.5-60.9C57.4,106.4,37.4,107.3,26,103.9z"/>
<line class="st2" x1="75.7" y1="29.7" x2="72" y2="104"/>
<rect x="36.7" y="64.9" transform="matrix(5.059297e-02 -0.9987 0.9987 5.059297e-02 3.3417 137.2717)" class="st1" width="74.4" height="3.9"/>
<path class="st1" d="M195.4,69.7h-39.6c-1.1-0.2-1.8-1.2-1.6-2.3c0.1-0.8,0.8-1.5,1.6-1.6h39.6c1.1,0.2,1.8,1.2,1.6,2.3
	C196.9,68.9,196.3,69.5,195.4,69.7z"/>
<path class="st1" d="M156.7,54.1c-1.1,0-2-1-1.9-2.1c0-0.5,0.2-0.9,0.5-1.3l28-28c0.9-0.6,2.1-0.4,2.8,0.5c0.5,0.7,0.5,1.6,0,2.3
	l-28,28C157.7,53.9,157.2,54.1,156.7,54.1z"/>
<path class="st1" d="M184.7,113.2c-0.5,0-1-0.2-1.4-0.6l-28-28c-0.9-0.6-1.1-1.9-0.5-2.8c0.6-0.9,1.9-1.1,2.8-0.5
	c0.2,0.1,0.3,0.3,0.5,0.5l28,28c0.8,0.8,0.7,2.1-0.1,2.8C185.7,113,185.2,113.2,184.7,113.2z"/>
</svg>
