<svg id="Layer_1" data-name="Layer 1" xmlns="http://www.w3.org/2000/svg" viewBox="0 0 199.6 190.53"><defs><style>.cls-1{fill:#333132;}.cls-2{fill:#4ea4ce;}</style></defs><title>1</title><path class="cls-1" d="M140.8,133.38a2.46,2.46,0,0,1-1.76-.74c-5.53-5.66-35.25-25.79-67.63-26.18-4.28-.05-8.67,0-12.91.13C40.1,107,22.73,107.35,12,96.76c-6.75-6.69-10-17-9.78-31.47C2.43,51,6,40.9,13.11,34.38c12-10.94,31.91-9.4,51.19-7.9,3.64,0.28,7.4.57,11,.78C106.87,29,141.18,2.76,141.52,2.49a2.46,2.46,0,0,1,4,2L143.26,131A2.46,2.46,0,0,1,140.8,133.38ZM68.86,101.52h2.61c27.69,0.33,55.19,15,67,24.09L140.48,9.31A162.12,162.12,0,0,1,122.55,20c-12,6.11-30,13.19-47.5,12.22-3.69-.2-7.48-0.5-11.14-0.78C44.84,29.91,26.83,28.51,16.43,38,10.36,43.56,7.34,52.5,7.18,65.35,7,78.43,9.75,87.56,15.5,93.26c9.21,9.13,25.57,8.78,42.89,8.41C61.82,101.59,65.35,101.52,68.86,101.52Z"/><path class="cls-1" d="M66.25,189.26a12.47,12.47,0,0,1-4.51-.84c-6.19-2.38-9-9-9.16-9.31L16.63,94.6,23,98.2c8,4.54,32,4,40.54,3.37l1.79-.13,25.63,63.83c5,11.66-6.37,16.89-6.48,16.95l-11.58,5.44A15.53,15.53,0,0,1,66.25,189.26Zm-40-84.61,30.86,72.54c0,0.05,2.19,5,6.41,6.64a9,9,0,0,0,7.24-.63l11.62-5.46c0.76-.35,7.05-3.48,4-10.57L62.05,106.6C56.19,106.91,37.71,107.62,26.26,104.65Z"/><line class="cls-2" x1="75.19" y1="29.71" x2="71.44" y2="104"/><rect class="cls-1" x="36.12" y="64.39" width="74.38" height="4.93" transform="translate(2.85 136.71) rotate(-87.11)"/><path class="cls-1" d="M194.89,70.14H155.25a2.46,2.46,0,0,1,0-4.93h39.64A2.46,2.46,0,0,1,194.89,70.14Z"/><path class="cls-1" d="M156.13,54.59a2.46,2.46,0,0,1-1.74-4.21l28-28a2.46,2.46,0,0,1,3.48,3.48l-28,28A2.46,2.46,0,0,1,156.13,54.59Z"/><path class="cls-1" d="M184.16,113.73a2.46,2.46,0,0,1-1.74-.72l-28-28a2.46,2.46,0,1,1,3.48-3.48l28,28A2.46,2.46,0,0,1,184.16,113.73Z"/></svg>