<?xml version="1.0" encoding="utf-8"?>
<!-- Generator: Adobe Illustrator 21.0.0, SVG Export Plug-In . SVG Version: 6.00 Build 0)  -->
<svg version="1.1" id="Layer_1" xmlns="http://www.w3.org/2000/svg" xmlns:xlink="http://www.w3.org/1999/xlink" x="0px" y="0px"
	 viewBox="0 0 199.6 190.5" style="enable-background:new 0 0 199.6 190.5;" xml:space="preserve">
<style type="text/css">
	.st0{fill:#FFFFFF;}
</style>
<title>1</title>
<path class="st0" d="M140.8,133.4c-0.7,0-1.3-0.3-1.8-0.7c-5.5-5.7-35.2-25.8-67.6-26.2c-4.3-0.1-8.7,0-12.9,0.1
	c-18.4,0.4-35.8,0.8-46.5-9.8c-6.8-6.7-10-17-9.8-31.5C2.4,51,6,40.9,13.1,34.4c12-10.9,31.9-9.4,51.2-7.9c3.6,0.3,7.4,0.6,11,0.8
	c31.6,1.7,65.9-24.5,66.2-24.8c1.1-0.9,2.6-0.7,3.5,0.4c0.4,0.5,0.6,1,0.5,1.6L143.3,131C143.2,132.3,142.1,133.4,140.8,133.4z
	 M68.9,101.5h2.6c27.7,0.3,55.2,15,67,24.1l2-116.3c-5.7,3.9-11.7,7.5-17.9,10.7c-12,6.1-30,13.2-47.5,12.2
	c-3.7-0.2-7.5-0.5-11.1-0.8c-19.1-1.5-37.1-2.9-47.5,6.6c-6.1,5.6-9.1,14.5-9.2,27.3C7,78.4,9.8,87.6,15.5,93.3
	c9.2,9.1,25.6,8.8,42.9,8.4C61.8,101.6,65.3,101.5,68.9,101.5z"/>
<path class="st0" d="M66.2,189.3c-1.5,0-3.1-0.3-4.5-0.8c-6.2-2.4-9-9-9.2-9.3L16.6,94.6l6.4,3.6c8,4.5,32,4,40.5,3.4l1.8-0.1
	L91,165.3c5,11.7-6.4,16.9-6.5,16.9l-11.6,5.4C70.8,188.7,68.6,189.2,66.2,189.3z M26.2,104.6l30.9,72.5c0,0.1,2.2,5,6.4,6.6
	c2.4,0.8,5,0.6,7.2-0.6l11.6-5.5c0.8-0.4,7.1-3.5,4-10.6L62,106.6C56.2,106.9,37.7,107.6,26.2,104.6L26.2,104.6z"/>
<line class="st0" x1="75.2" y1="29.7" x2="71.4" y2="104"/>
<rect x="36.1" y="64.4" transform="matrix(5.041862e-02 -0.9987 0.9987 5.041862e-02 2.8407 136.7157)" class="st0" width="74.4" height="4.9"/>
<path class="st0" d="M194.9,70.1h-39.6c-1.4,0-2.5-1.1-2.5-2.5c0-1.4,1.1-2.5,2.5-2.5h39.6c1.4,0,2.5,1.1,2.5,2.5
	C197.4,69,196.3,70.1,194.9,70.1z"/>
<path class="st0" d="M156.1,54.6c-1.4,0-2.5-1.1-2.5-2.4c0-0.7,0.3-1.3,0.7-1.8l28-28c1-1,2.5-1,3.5,0c1,1,1,2.5,0,3.5l-28,28
	C157.4,54.3,156.8,54.6,156.1,54.6z"/>
<path class="st0" d="M184.2,113.7c-0.7,0-1.3-0.3-1.7-0.7l-28-28c-1-1-1-2.5,0-3.5c1-1,2.5-1,3.5,0l28,28c1,1,1,2.5,0,3.5
	C185.4,113.5,184.8,113.7,184.2,113.7z"/>
</svg>
