<?xml version="1.0" encoding="utf-8"?>
<!-- Generator: Adobe Illustrator 21.0.0, SVG Export Plug-In . SVG Version: 6.00 Build 0)  -->
<svg version="1.1" id="Layer_1" xmlns="http://www.w3.org/2000/svg" xmlns:xlink="http://www.w3.org/1999/xlink" x="0px" y="0px"
	 viewBox="0 0 199.6 190.5" style="enable-background:new 0 0 199.6 190.5;" xml:space="preserve">
<style type="text/css">
	.st0{fill:#FFFFFF;}
</style>
<title>1</title>
<path class="st0" d="M99.4,189.1h-1.6h-1.6c-21,0-30.5-9.5-34.9-17.5c-6.7-12.5-4.4-27.8,1.2-35.8c5.3-7.6,5.2-12.7,5.1-19.2
	c-0.3-5.3,0.3-10.7,1.6-15.8c1.9-7,7.6-12,16.4-14.4c7.9-2.2,16.2-2.2,24.1,0c8.8,2.5,14.5,7.4,16.4,14.4c1.3,5.2,1.9,10.5,1.6,15.8
	c-0.1,6.5-0.2,11.6,5.1,19.2c5.6,8,7.9,23.3,1.2,35.8C129.9,179.6,120.3,189.1,99.4,189.1z M97.4,89.2c-3.6,0-20.5,0.9-23.8,12.8
	c-1.2,4.8-1.7,9.7-1.5,14.6c0.1,6.7,0.2,13-5.9,21.8c-4.9,7-6.6,20.6-0.9,31.2c3.8,7.1,12.5,15.5,32.3,15.2H98
	c19.7,0.4,28.4-8,32.3-15.2c5.7-10.6,4-24.1-0.9-31.2c-6.1-8.8-6-15.1-5.9-21.8c0.3-4.9-0.2-9.8-1.4-14.5
	c-3.3-11.9-20.2-12.7-23.8-12.8L97.4,89.2L97.4,89.2z"/>
<path class="st0" d="M110.1,164.7H85.5c-2.8,0-5.2-2.3-5.2-5.2s2.3-5.2,5.2-5.2h24.7c2.8,0,5.2,2.3,5.2,5.2S113,164.7,110.1,164.7z
	 M85.5,158.8c-0.4,0-0.7,0.3-0.7,0.7c0,0.4,0.3,0.7,0.7,0.7h24.7c0.4,0,0.7-0.3,0.7-0.7c0-0.4-0.3-0.7-0.7-0.7H85.5z"/>
<path class="st0" d="M97.8,140.2c-8.1,0-14.7-6.6-14.7-14.7s6.6-14.7,14.7-14.7s14.7,6.6,14.7,14.7l0,0
	C112.5,133.7,105.9,140.2,97.8,140.2z M97.8,115.3c-5.6,0-10.2,4.6-10.3,10.2c0,5.6,4.6,10.2,10.2,10.3s10.2-4.6,10.3-10.2
	c0,0,0,0,0,0C108,119.9,103.4,115.3,97.8,115.3L97.8,115.3z"/>
<path class="st0" d="M89.8,89.7L89.8,89.7c-1.3,0-2.3-1.1-2.2-2.3c0,0,0,0,0,0l1.5-51.8c0-1.2,1.1-2.2,2.3-2.2
	c1.2,0,2.2,1.1,2.2,2.3L92,87.5C92,88.7,91,89.7,89.8,89.7z"/>
<path class="st0" d="M105.8,90.2c-1.2,0-2.2-1-2.2-2.2V35.7c0-1.2,1-2.2,2.2-2.2s2.2,1,2.2,2.2V88C108,89.2,107,90.2,105.8,90.2z"/>
<path class="st0" d="M102,39.1h-6.6c-4.1,0-7.4-3.3-7.4-7.3c0,0,0,0,0,0V9.3c0-4.1,3.3-7.3,7.3-7.3h6.7c4.1,0,7.3,3.3,7.3,7.3v22.5
	C109.3,35.8,106.1,39.1,102,39.1z M95.4,6.4c-1.6,0-2.9,1.3-2.9,2.9c0,0,0,0,0,0v22.5c0,1.6,1.3,2.9,2.9,2.9l0,0h6.6
	c1.6,0,2.9-1.3,2.9-2.9l0,0V9.3c0-1.6-1.3-2.9-2.9-2.9l0,0C102,6.4,95.4,6.4,95.4,6.4z"/>
</svg>
