<?xml version="1.0" encoding="utf-8"?>
<!-- Generator: Adobe Illustrator 21.1.0, SVG Export Plug-In . SVG Version: 6.00 Build 0)  -->
<svg version="1.1" id="Layer_1" xmlns="http://www.w3.org/2000/svg" xmlns:xlink="http://www.w3.org/1999/xlink" x="0px" y="0px"
	 viewBox="0 0 199.6 190.5" style="enable-background:new 0 0 199.6 190.5;" xml:space="preserve">
<style type="text/css">
	.st0{fill:#333132;}
	.st1{fill:#CB2127;}
</style>
<title>1</title>
<path class="st0" d="M102.7,188.7h-1.6h-1.6c-20.8,0-30.2-9.3-34.5-17.3c-6.4-11.9-4.4-27.3,1.2-35.4c5.4-7.7,5.3-12.9,5.2-19.4
	c-0.3-5.3,0.3-10.6,1.6-15.7c1.9-6.8,7.4-11.7,16.1-14.1c7.8-2.1,16-2.1,23.8,0c8.7,2.4,14.2,7.3,16.1,14.1
	c1.3,5.1,1.9,10.4,1.6,15.7c-0.1,6.5-0.2,11.7,5.2,19.4c5.6,8,7.6,23.5,1.2,35.4C132.9,179.3,123.5,188.7,102.7,188.7z M100.7,88.7
	c-3.6,0-20.8,0.9-24.2,13.1c-1.2,4.8-1.7,9.8-1.5,14.7c0.1,6.6,0.2,12.9-5.9,21.5c-5,7.2-6.7,20.9-1,31.6
	c3.9,7.2,12.8,15.8,32.7,15.4h0.4c20,0.4,28.8-8.1,32.7-15.4c5.8-10.7,4-24.5-1-31.6c-6-8.7-5.9-14.9-5.9-21.5
	c0.3-4.9-0.2-9.9-1.5-14.7c-3.3-12.2-20.6-13.1-24.2-13.1h-0.8L100.7,88.7z"/>
<path class="st1" d="M85.9,159.5L85.9,159.5c0-1.6,1.3-2.9,2.9-2.9h24.7c1.6,0,2.9,1.3,2.9,2.9l0,0c0,1.6-1.3,2.9-2.9,2.9H88.8
	C87.2,162.4,85.9,161.1,85.9,159.5z"/>
<path class="st0" d="M113.5,164.2H88.8c-2.6,0-4.7-2.1-4.7-4.7c0-2.6,2.1-4.7,4.7-4.7h24.7c2.6,0,4.7,2.1,4.7,4.7
	C118.2,162.1,116.1,164.2,113.5,164.2z M88.8,158.3c-0.6,0-1.2,0.5-1.2,1.2s0.5,1.2,1.2,1.2h24.7c0.6,0,1.2-0.5,1.2-1.2
	s-0.5-1.2-1.2-1.2H88.8z"/>
<circle class="st1" cx="101.1" cy="125.6" r="12.5"/>
<path class="st0" d="M101.1,139.8c-7.9,0-14.2-6.4-14.2-14.2c0-7.9,6.4-14.2,14.2-14.2c7.9,0,14.2,6.4,14.2,14.2l0,0
	C115.4,133.4,109,139.8,101.1,139.8z M101.1,114.9c-5.9,0-10.7,4.8-10.7,10.7s4.8,10.7,10.7,10.7s10.7-4.8,10.7-10.7l0,0
	C111.8,119.7,107,114.9,101.1,114.9z"/>
<path class="st0" d="M93.2,89.2L93.2,89.2c-1,0-1.8-0.8-1.8-1.8c0,0,0,0,0,0l1.5-51.8c0-1,0.7-1.8,1.7-1.9c1,0,1.8,0.7,1.9,1.7
	c0,0.1,0,0.2,0,0.2l-1.5,51.8C94.9,88.5,94.1,89.2,93.2,89.2z"/>
<path class="st0" d="M109.1,89.7c-1,0-1.8-0.8-1.8-1.8V35.7c0-1,0.8-1.8,1.8-1.8c1,0,1.8,0.8,1.8,1.8V88
	C110.9,89,110.1,89.8,109.1,89.7z"/>
<path class="st1" d="M93.6,31.1V9.9c0-3.2,2.6-5.8,5.8-5.8h5.3c3.2,0,5.8,2.6,5.8,5.8v21.2c0,3.2-2.6,5.8-5.8,5.8h-5.3
	C96.2,36.9,93.6,34.3,93.6,31.1z"/>
<path class="st0" d="M105.3,38.6h-6.6c-3.8,0-6.9-3.1-6.9-6.9V9.3c0-3.8,3.1-6.9,6.9-6.9h6.6c3.8,0,6.9,3.1,6.9,6.9v22.5
	C112.2,35.6,109.1,38.6,105.3,38.6z M98.7,5.9c-1.8,0-3.3,1.5-3.3,3.3v22.5c0,1.8,1.5,3.3,3.3,3.3h6.6c1.8,0,3.3-1.5,3.3-3.3V9.3
	c0-1.8-1.5-3.3-3.3-3.3L98.7,5.9L98.7,5.9z"/>
</svg>
