<svg id="Layer_1" data-name="Layer 1" xmlns="http://www.w3.org/2000/svg" viewBox="0 0 199.6 190.53"><defs><style>.cls-1{fill:#333132;}</style></defs><title>1</title><path class="cls-1" d="M99.36,189.11l-1.56,0-1.56,0c-21,0-30.53-9.46-34.86-17.52-6.72-12.51-4.4-27.79,1.2-35.83,5.3-7.61,5.23-12.71,5.14-19.17a52.44,52.44,0,0,1,1.62-15.81c1.92-7,7.59-12,16.42-14.44a45.73,45.73,0,0,1,24.08,0c8.82,2.46,14.5,7.45,16.42,14.44a52.44,52.44,0,0,1,1.62,15.81c-0.09,6.46-.16,11.56,5.14,19.17,5.59,8,7.92,23.32,1.2,35.83C129.89,179.65,120.34,189.11,99.36,189.11Zm-2-99.92c-3.57,0-20.48.87-23.75,12.78a48,48,0,0,0-1.46,14.57c0.09,6.68.17,13-5.94,21.77-4.91,7-6.6,20.63-.93,31.18,3.84,7.14,12.54,15.54,32.27,15.16H98c19.7,0.41,28.43-8,32.27-15.16,5.67-10.55,4-24.14-.93-31.18-6.11-8.78-6-15.09-5.94-21.77A48,48,0,0,0,122,102c-3.26-11.9-20.17-12.74-23.75-12.78H97.38Z"/><path class="cls-1" d="M110.13,164.66H85.46a5.15,5.15,0,1,1,0-10.31h24.67A5.15,5.15,0,0,1,110.13,164.66ZM85.46,158.8a0.71,0.71,0,0,0,0,1.42h24.67a0.71,0.71,0,0,0,0-1.42H85.46Z"/><path class="cls-1" d="M97.8,140.24a14.68,14.68,0,1,1,14.68-14.68A14.7,14.7,0,0,1,97.8,140.24Zm0-24.91A10.23,10.23,0,1,0,108,125.56,10.25,10.25,0,0,0,97.8,115.32Z"/><path class="cls-1" d="M89.82,89.69H89.76a2.22,2.22,0,0,1-2.16-2.29l1.5-51.8a2.22,2.22,0,1,1,4.44.13L92,87.53A2.22,2.22,0,0,1,89.82,89.69Z"/><path class="cls-1" d="M105.78,90.19A2.22,2.22,0,0,1,103.56,88V35.67a2.22,2.22,0,0,1,4.45,0V88A2.22,2.22,0,0,1,105.78,90.19Z"/><path class="cls-1" d="M102,39.09H95.38A7.35,7.35,0,0,1,88,31.75V9.28a7.35,7.35,0,0,1,7.34-7.34H102a7.35,7.35,0,0,1,7.34,7.34V31.75A7.35,7.35,0,0,1,102,39.09ZM95.38,6.38a2.9,2.9,0,0,0-2.9,2.9V31.75a2.9,2.9,0,0,0,2.9,2.9H102a2.9,2.9,0,0,0,2.9-2.9V9.28a2.9,2.9,0,0,0-2.9-2.9H95.38Z"/></svg>