<?xml version="1.0" encoding="utf-8"?>
<!-- Generator: Adobe Illustrator 21.0.0, SVG Export Plug-In . SVG Version: 6.00 Build 0)  -->
<svg version="1.1" id="Layer_1" xmlns="http://www.w3.org/2000/svg" xmlns:xlink="http://www.w3.org/1999/xlink" x="0px" y="0px"
	 viewBox="0 0 199.6 190.5" style="enable-background:new 0 0 199.6 190.5;" xml:space="preserve">
<style type="text/css">
	.st0{fill:#FFFFFF;}
</style>
<title>1</title>
<path class="st0" d="M124.5,187.7c-6.3,0-13.8-1.7-23.3-5.1c-16.2,5.9-26.8,6.7-35.2,2.6c-12.9-6.3-19.5-24.6-28.1-51.9
	c-7.4-23.7-4.1-44.9,9.2-58.3C56,66,67.9,62.2,77.6,65.1c14.3,4.4,20.9,4.7,22.9,4.7c0.2,0,0.3,0,0.5,0h0.5c0.2,0,0.3,0,0.5,0.1
	c1.9,0,8.5-0.3,22.8-4.7c9.6-3,21.6,0.9,30.4,9.8c13.3,13.4,16.7,34.7,9.2,58.3c-8.6,27.2-15.1,45.6-28.1,51.9
	C132.6,186.9,128.6,187.8,124.5,187.7z M103,177.9c14.6,5.3,24.2,6.1,31.1,2.7c11.1-5.4,17.3-22.9,25.5-48.9
	c6.9-21.8,3.9-41.2-8-53.3c-7.4-7.5-17.6-10.9-25.4-8.6c-16,4.9-23,5.1-25.1,4.9c-2,0.1-9,0-25-4.9c-7.8-2.4-18,1.1-25.4,8.6
	c-12,12-14.9,31.5-8,53.3c8.2,26,14.4,43.4,25.5,48.9c6.9,3.4,16.5,2.6,31.1-2.7C100.4,177.1,101.9,177.1,103,177.9z"/>
<path class="st0" d="M101.4,74.8c-1.1,0-2.1-0.8-2.4-1.9c-1.3-5.8-1.9-11.8-2-17.7c-0.1-11.9,2.1-28.3,13.5-39.1
	c8.8-8.4,21.8-12.2,38.4-11.2c1.4,0.1,2.4,1.3,2.4,2.7c-0.1,1.4-1.3,2.4-2.7,2.3c-15.2-0.9-26.8,2.4-34.6,9.8
	c-10.1,9.6-12.1,24.6-12,35.5c0.1,5.6,0.7,11.2,1.8,16.6c0.3,1.3-0.5,2.7-1.9,3C101.8,74.8,101.6,74.8,101.4,74.8z"/>
<path class="st0" d="M110.2,58.8c-3.8,0-7.7-0.4-11.4-1.3c-1.1-0.3-1.8-1.3-1.9-2.4c-0.2-18.1,4.8-31.7,15-40.4
	c16.2-13.9,39.2-10.2,40.1-10c1.3,0.2,2.2,1.3,2.1,2.6c-1.4,21-8.1,35.9-19.8,44.2C127.3,56.5,118.9,59,110.2,58.8z M102,53.1
	c4.8,0.9,18.3,2.4,29.5-5.6c10-7.1,15.9-19.9,17.5-38.1c-5.9-0.5-22.2-0.8-33.8,9.2C106.6,26,102.2,37.6,102,53.1z"/>
<path class="st0" d="M57.9,120.3c-1.3,0-2.4-1-2.5-2.3c-0.5-8.7,1.7-16,6.7-21.6c8.9-10,23.3-10.8,23.9-10.8c1.4-0.1,2.6,1,2.6,2.4
	s-1,2.6-2.4,2.6c-0.1,0-13,0.8-20.5,9.2c-4,4.5-5.9,10.6-5.4,17.9c0.1,1.4-1,2.6-2.3,2.7H57.9z"/>
</svg>
