<?xml version="1.0" encoding="utf-8"?>
<!-- Generator: Adobe Illustrator 21.1.0, SVG Export Plug-In . SVG Version: 6.00 Build 0)  -->
<svg version="1.1" id="Layer_1" xmlns="http://www.w3.org/2000/svg" xmlns:xlink="http://www.w3.org/1999/xlink" x="0px" y="0px"
	 viewBox="0 0 199.6 190.5" style="enable-background:new 0 0 199.6 190.5;" xml:space="preserve">
<style type="text/css">
	.st0{fill:#333132;}
	.st1{fill:#CB2127;}
</style>
<title>1</title>
<path class="st0" d="M123.4,187.1c-6.3,0-13.8-1.7-23.3-5.2c-16.2,5.9-26.7,6.7-34.9,2.6c-12.8-6.2-19.3-24.5-27.8-51.6
	c-7.4-23.5-4.1-44.5,9.1-57.8c8.7-8.8,20.5-12.6,29.9-9.7c14.5,4.5,21.2,4.8,23.1,4.8c0.1,0,0.3,0,0.4,0h0.5c0.1,0,0.3,0,0.4,0
	c1.9,0,8.6-0.3,23.1-4.8c9.4-2.9,21.2,0.9,29.9,9.7c13.2,13.3,16.5,34.3,9.1,57.8c-8.5,27.1-15.1,45.3-27.8,51.6
	C131.4,186.3,127.4,187.2,123.4,187.1z M101.7,178.3c14.7,5.4,24.5,6.2,31.6,2.7c11.3-5.5,17.6-23.1,25.8-49.2
	c6.9-22,4-41.6-8.1-53.8c-7.6-7.6-18-11.1-25.9-8.7c-16.1,4.9-23,5-24.9,4.9c-1.9,0.1-8.8,0-24.9-4.9c-7.9-2.4-18.3,1.1-25.9,8.7
	c-12.1,12.2-15.1,31.8-8.1,53.8c8.2,26.1,14.4,43.7,25.8,49.2c7.1,3.5,16.8,2.6,31.6-2.7C99.4,177.6,100.7,177.6,101.7,178.3
	L101.7,178.3z"/>
<path class="st0" d="M100.3,74.2c-0.9,0-1.7-0.6-1.9-1.5c-1.2-5.8-1.9-11.7-1.9-17.6c-0.2-11.8,2-28.1,13.3-38.8
	c8.7-8.3,21.5-12,38-11c1.1,0.1,1.9,1,1.9,2.1c-0.1,1.1-1,1.9-2.1,1.9c-15.3-0.9-27.1,2.4-35,9.9C102.3,28.9,100.3,44,100.4,55
	c0.1,5.6,0.7,11.2,1.8,16.8c0.3,1.1-0.4,2.2-1.5,2.4c0,0,0,0,0,0C100.6,74.2,100.5,74.2,100.3,74.2z"/>
<path class="st1" d="M98.4,55c0,0,48.1,13.3,52.2-47.9C150.6,7.1,97.7-1.8,98.4,55z"/>
<path class="st0" d="M109.2,58.3c-3.8,0-7.6-0.4-11.2-1.3c-0.9-0.2-1.5-1-1.5-1.9c-0.2-17.9,4.7-31.4,14.8-40
	c16-13.8,38.8-10.1,39.7-10c1,0.2,1.7,1.1,1.7,2.1c-1.4,20.9-8,35.7-19.6,43.9C126,55.9,117.7,58.4,109.2,58.3z M100.4,53.4
	c4.5,0.9,18.7,2.7,30.3-5.6c10.2-7.2,16.2-20.4,17.7-39c-5.5-0.5-22.6-1.2-34.7,9.2C105,25.7,100.5,37.5,100.4,53.4L100.4,53.4z"/>
<path class="st0" d="M56.8,119.7c-1.1,0-1.9-0.8-2-1.9c-0.5-8.6,1.7-15.7,6.6-21.2C70.2,86.8,84.4,86,85,86c1.1-0.1,2,0.8,2.1,1.9
	s-0.8,2-1.9,2.1C85,90,72,90.7,64.4,99.3c-4.1,4.6-6,10.8-5.5,18.3c0.1,1.1-0.7,2-1.8,2.1H56.8z"/>
</svg>
