<svg id="Layer_1" data-name="Layer 1" xmlns="http://www.w3.org/2000/svg" viewBox="0 0 199.6 190.53"><defs><style>.cls-1{fill:#333132;}</style></defs><title>1</title><path class="cls-1" d="M124.46,187.7c-6.3,0-13.84-1.69-23.3-5.14-16.23,5.9-26.79,6.66-35.16,2.57-12.94-6.33-19.52-24.65-28.08-51.88-7.44-23.65-4.07-44.91,9.24-58.32C56,66,67.94,62.16,77.57,65.11c14.33,4.39,20.93,4.72,22.87,4.73a2.53,2.53,0,0,1,.49,0h0.47a2.53,2.53,0,0,1,.5.05c1.94,0,8.5-.34,22.85-4.73,9.63-2.95,21.57.9,30.41,9.81,13.31,13.41,16.68,34.66,9.24,58.32-8.56,27.23-15.15,45.55-28.08,51.88A26.38,26.38,0,0,1,124.46,187.7ZM103,177.92c14.55,5.27,24.17,6.1,31.09,2.71,11.14-5.45,17.34-22.9,25.51-48.89,6.86-21.82,3.94-41.25-8-53.29C144.18,71,134,67.52,126.21,69.89c-16.05,4.92-23,5.06-25.06,4.93-2,.13-9,0-25.05-4.93-7.75-2.37-18,1.06-25.4,8.55-12,12-14.88,31.47-8,53.29,8.17,26,14.37,43.44,25.51,48.89,6.92,3.38,16.54,2.55,31.09-2.71A3.22,3.22,0,0,1,103,177.92Z"/><path class="cls-1" d="M101.39,74.79A2.5,2.5,0,0,1,99,72.87,88.83,88.83,0,0,1,97,55.14C96.89,43.28,99.11,26.86,110.51,16c8.84-8.42,21.75-12.18,38.39-11.16a2.5,2.5,0,1,1-.3,5c-15.19-.92-26.84,2.37-34.63,9.79C103.86,29.24,101.9,44.21,102,55.08a85.55,85.55,0,0,0,1.8,16.64,2.5,2.5,0,0,1-1.86,3A2.56,2.56,0,0,1,101.39,74.79Z"/><path class="cls-1" d="M110.24,58.85a46.09,46.09,0,0,1-11.38-1.33A2.5,2.5,0,0,1,97,55.14C96.78,37.05,101.8,23.46,112,14.73c16.16-13.86,39.18-10.18,40.15-10a2.5,2.5,0,0,1,2.08,2.63c-1.41,21.05-8.06,35.94-19.78,44.25A41.5,41.5,0,0,1,110.24,58.85ZM102,53.09c4.84,0.88,18.35,2.37,29.54-5.59,10-7.1,15.85-19.91,17.46-38.11-5.93-.5-22.22-0.82-33.83,9.17C106.59,26,102.16,37.56,102,53.09Z"/><path class="cls-1" d="M57.92,120.29a2.5,2.5,0,0,1-2.49-2.35c-0.54-8.74,1.72-16,6.71-21.58,8.93-10,23.32-10.81,23.93-10.84a2.5,2.5,0,0,1,.25,5c-0.14,0-13,.79-20.48,9.21-4,4.54-5.87,10.57-5.42,17.91a2.5,2.5,0,0,1-2.34,2.65H57.92Z"/></svg>