<?xml version="1.0" encoding="utf-8"?>
<!-- Generator: Adobe Illustrator 21.0.0, SVG Export Plug-In . SVG Version: 6.00 Build 0)  -->
<svg version="1.1" id="Layer_1" xmlns="http://www.w3.org/2000/svg" xmlns:xlink="http://www.w3.org/1999/xlink" x="0px" y="0px"
	 viewBox="0 0 199.6 190.5" style="enable-background:new 0 0 199.6 190.5;" xml:space="preserve">
<style type="text/css">
	.st0{fill:#FFFFFF;}
</style>
<title>1</title>
<path class="st0" d="M145.6,54.7c-1.4,0-2.6-1.1-2.6-2.5c0,0,0,0,0,0v-15c0-5.5-4.5-10-10-10H66.5c-5.5,0-10,4.5-10,10v15
	c0.1,1.4-1,2.6-2.4,2.7c-1.4,0.1-2.6-1-2.7-2.4c0-0.1,0-0.2,0-0.3v-15c0-8.3,6.8-15,15.1-15h66.6c8.3,0,15.1,6.8,15.1,15.1v15
	C148.2,53.6,147,54.7,145.6,54.7z"/>
<path class="st0" d="M182.4,179.6H17.2c-8.2,0-14.8-6.6-14.8-14.8V64.6c0-8.2,6.6-14.8,14.8-14.8h165.2c8.2,0,14.8,6.6,14.8,14.8
	v100.2C197.2,173,190.6,179.6,182.4,179.6z M17.2,55c-5.3,0-9.7,4.3-9.7,9.7v100.2c0,5.3,4.3,9.7,9.7,9.7h165.2
	c5.3,0,9.7-4.3,9.7-9.7V64.6c0-5.3-4.3-9.7-9.7-9.7C182.4,54.9,17.2,54.9,17.2,55z"/>
<path class="st0" d="M99.8,156.4c-22.3,0-40.3-18.1-40.3-40.3s18.1-40.3,40.3-40.3s40.3,18.1,40.3,40.3v0
	C140.1,138.3,122.1,156.3,99.8,156.4z M99.8,80.8c-19.5,0-35.2,15.7-35.2,35.2s15.7,35.2,35.2,35.2s35.2-15.7,35.2-35.2c0,0,0,0,0,0
	C135,96.6,119.2,80.9,99.8,80.8z"/>
<path class="st0" d="M99.8,141.2c-13.9,0-25.2-11.3-25.2-25.2s11.3-25.2,25.2-25.2S125,102.1,125,116v0c0.1,1.4-1,2.6-2.4,2.7
	s-2.6-1-2.7-2.4c0-0.1,0-0.2,0-0.3c0-11.1-9-20.1-20.1-20.1s-20.1,9-20.1,20.1s9,20.1,20.1,20.1c1.4-0.1,2.6,1,2.7,2.4
	s-1,2.6-2.4,2.7C100,141.3,99.9,141.3,99.8,141.2z"/>
</svg>
