<?xml version="1.0" encoding="utf-8"?>
<!-- Generator: Adobe Illustrator 21.1.0, SVG Export Plug-In . SVG Version: 6.00 Build 0)  -->
<svg version="1.1" id="Layer_1" xmlns="http://www.w3.org/2000/svg" xmlns:xlink="http://www.w3.org/1999/xlink" x="0px" y="0px"
	 viewBox="0 0 199.6 190.5" style="enable-background:new 0 0 199.6 190.5;" xml:space="preserve">
<style type="text/css">
	.st0{fill:#CB2127;}
	.st1{fill:#333132;}
</style>
<title>1</title>
<path class="st0" d="M54,52.2v-15c0-6.9,5.6-12.4,12.5-12.5h66.6c6.9,0,12.5,5.6,12.5,12.5v15"/>
<path class="st1" d="M145.6,54.2c-1.1,0-2-0.9-2-2v-15c0-5.8-4.7-10.5-10.5-10.5H66.5c-5.8,0-10.5,4.7-10.5,10.5v15c0,1.1-0.9,2-2,2
	s-2-0.9-2-2v-15c0-8,6.5-14.6,14.6-14.6h66.6c8,0,14.6,6.5,14.6,14.6v15C147.7,53.3,146.8,54.2,145.6,54.2
	C145.7,54.2,145.7,54.2,145.6,54.2z"/>
<path class="st1" d="M182.4,179.1H17.2c-7.9,0-14.3-6.4-14.3-14.3V64.6c0-7.9,6.4-14.3,14.3-14.3h165.2c7.9,0,14.2,6.4,14.3,14.3
	v100.2C196.7,172.7,190.3,179.1,182.4,179.1z M17.2,54.4C11.6,54.4,7,59,7,64.6v100.2c0,5.6,4.6,10.2,10.2,10.2h165.2
	c5.6,0,10.2-4.6,10.2-10.2V64.6c0-5.6-4.6-10.2-10.2-10.2H17.2z"/>
<circle class="st0" cx="99.8" cy="116" r="37.8"/>
<path class="st1" d="M99.8,155.9C77.8,155.9,60,138,60,116c0-22,17.8-39.8,39.8-39.8s39.8,17.8,39.8,39.8v0
	C139.6,138,121.8,155.8,99.8,155.9z M99.8,80.3c-19.7,0-35.7,16-35.7,35.7s16,35.7,35.7,35.7s35.7-16,35.7-35.7
	C135.5,96.3,119.5,80.3,99.8,80.3z"/>
<path class="st1" d="M99.8,140.7c-13.6,0-24.7-11.1-24.7-24.7c0-13.6,11.1-24.7,24.7-24.7c13.6,0,24.7,11.1,24.7,24.7
	c0,1.1-0.9,2-2,2s-2-0.9-2-2c0-11.4-9.2-20.6-20.6-20.6c-11.4,0-20.6,9.2-20.6,20.6c0,11.4,9.2,20.6,20.6,20.6c1.1,0,2,0.9,2,2
	S100.9,140.7,99.8,140.7z"/>
</svg>
