<svg id="Layer_1" data-name="Layer 1" xmlns="http://www.w3.org/2000/svg" viewBox="0 0 199.6 190.53"><defs><style>.cls-1{fill:#333132;}</style></defs><title>1</title><path class="cls-1" d="M145.65,54.72a2.55,2.55,0,0,1-2.55-2.55v-15a10,10,0,0,0-10-10H66.49a10,10,0,0,0-10,10v15a2.55,2.55,0,1,1-5.09,0v-15A15.1,15.1,0,0,1,66.49,22.13h66.62a15.1,15.1,0,0,1,15.08,15.08v15A2.55,2.55,0,0,1,145.65,54.72Z"/><path class="cls-1" d="M182.41,179.59H17.2A14.79,14.79,0,0,1,2.43,164.81V64.63A14.79,14.79,0,0,1,17.2,49.85H182.41a14.79,14.79,0,0,1,14.77,14.77V164.81A14.79,14.79,0,0,1,182.41,179.59ZM17.2,54.95a9.69,9.69,0,0,0-9.68,9.68V164.81a9.69,9.69,0,0,0,9.68,9.68H182.41a9.69,9.69,0,0,0,9.68-9.68V64.63a9.69,9.69,0,0,0-9.68-9.68H17.2Z"/><path class="cls-1" d="M99.8,156.37a40.32,40.32,0,1,1,40.32-40.32A40.36,40.36,0,0,1,99.8,156.37Zm0-75.54A35.22,35.22,0,1,0,135,116.05,35.26,35.26,0,0,0,99.8,80.83Z"/><path class="cls-1" d="M99.8,141.25a25.2,25.2,0,1,1,25.2-25.2,2.55,2.55,0,1,1-5.09,0A20.11,20.11,0,1,0,99.8,136.16,2.55,2.55,0,1,1,99.8,141.25Z"/></svg>