<svg id="Layer_1" data-name="Layer 1" xmlns="http://www.w3.org/2000/svg" viewBox="0 0 199.6 190.53"><defs><style>.cls-1{fill:#333132;}</style></defs><title>1</title><path class="cls-1" d="M85,106.32H23.39a2,2,0,0,1-2-2V38.29a2,2,0,0,1,2-2H85a2,2,0,0,1,2,2v66.07A2,2,0,0,1,85,106.32Zm-59.68-3.93H83.07V40.25H25.36v62.13Z"/><path class="cls-1" d="M184.11,147.78H16.43A13.79,13.79,0,0,1,2.65,134V31.91A13.79,13.79,0,0,1,16.43,18.13H184.11a13.79,13.79,0,0,1,13.77,13.77V134A13.79,13.79,0,0,1,184.11,147.78ZM16.43,22.07a9.85,9.85,0,0,0-9.84,9.84V134a9.85,9.85,0,0,0,9.84,9.84H184.11a9.85,9.85,0,0,0,9.84-9.84V31.91a9.85,9.85,0,0,0-9.84-9.84H16.43Z"/><path class="cls-1" d="M195.91,125.33H4.62a2,2,0,0,1,0-3.93H195.91A2,2,0,0,1,195.91,125.33Z"/><path class="cls-1" d="M131.5,173H66.34v-2l-0.09-2a0.51,0.51,0,0,0-.15,0c0.06,0,5.68-1.82,5.43-23.28a2,2,0,0,1,1.94-2h0a2,2,0,0,1,2,1.94c0.15,12.93-1.77,19.74-3.9,23.31h55.58c-2.26-3.66-4.7-10.62-4.16-23.37a2,2,0,0,1,3.93.17c-0.82,19.2,5.5,23.43,5.57,23.47A2,2,0,0,1,131.5,173Z"/><path class="cls-1" d="M177.33,43.6H106.25a2.46,2.46,0,0,1,0-4.92h71.08A2.46,2.46,0,1,1,177.33,43.6Z"/><path class="cls-1" d="M177.33,73.41H106.25a2.46,2.46,0,0,1,0-4.92h71.08A2.46,2.46,0,1,1,177.33,73.41Z"/><path class="cls-1" d="M177.33,103.22H106.25a2.46,2.46,0,0,1,0-4.92h71.08A2.46,2.46,0,1,1,177.33,103.22Z"/></svg>