<?xml version="1.0" encoding="utf-8"?>
<!-- Generator: Adobe Illustrator 21.0.0, SVG Export Plug-In . SVG Version: 6.00 Build 0)  -->
<svg version="1.1" id="Layer_1" xmlns="http://www.w3.org/2000/svg" xmlns:xlink="http://www.w3.org/1999/xlink" x="0px" y="0px"
	 viewBox="0 0 199.6 190.5" style="enable-background:new 0 0 199.6 190.5;" xml:space="preserve">
<style type="text/css">
	.st0{fill:#FFFFFF;}
</style>
<title>1</title>
<path class="st0" d="M85,106.3H23.4c-1.1,0-2-0.9-2-2v-66c0-1.1,0.9-2,2-2H85c1.1,0,2,0.9,2,2v66.1C87,105.4,86.1,106.3,85,106.3z
	 M25.3,102.4h57.8V40.2H25.4L25.3,102.4L25.3,102.4z"/>
<path class="st0" d="M184.1,147.8H16.4c-7.6,0-13.8-6.2-13.8-13.8V31.9c0-7.6,6.2-13.8,13.8-13.8h167.7c7.6,0,13.8,6.2,13.8,13.8
	V134C197.9,141.6,191.7,147.8,184.1,147.8z M16.4,22.1c-5.4,0-9.8,4.4-9.8,9.8V134c0,5.4,4.4,9.8,9.8,9.8h167.7
	c5.4,0,9.8-4.4,9.8-9.8V31.9c0-5.4-4.4-9.8-9.8-9.8H16.4z"/>
<path class="st0" d="M195.9,125.3H4.6c-1.1-0.2-1.8-1.3-1.6-2.3c0.2-0.8,0.8-1.4,1.6-1.6h191.3c1.1,0.2,1.8,1.3,1.6,2.3
	C197.3,124.5,196.7,125.2,195.9,125.3z"/>
<path class="st0" d="M131.5,173H66.3v-2l-0.1-2c0,0-0.1,0-0.2,0c0.1,0,5.7-1.8,5.4-23.3c0-1.1,0.9-2,1.9-2l0,0c1.1,0,2,0.9,2,1.9
	c0.2,12.9-1.8,19.7-3.9,23.3h55.6c-2.3-3.7-4.7-10.6-4.2-23.4c0.2-1.1,1.3-1.7,2.4-1.5c0.8,0.2,1.4,0.9,1.5,1.7
	c-0.8,19.2,5.5,23.4,5.6,23.5c1,0.5,1.3,1.7,0.8,2.7C132.9,172.6,132.2,173,131.5,173z"/>
<path class="st0" d="M177.3,43.6h-71.1c-1.4,0-2.5-1.1-2.5-2.5c0-1.4,1.1-2.5,2.5-2.5h71.1c1.4,0,2.5,1.1,2.5,2.5
	C179.8,42.5,178.7,43.6,177.3,43.6C177.3,43.6,177.3,43.6,177.3,43.6z"/>
<path class="st0" d="M177.3,73.4h-71.1c-1.4,0-2.5-1.1-2.5-2.5c0-1.4,1.1-2.5,2.5-2.5h71.1c1.4,0,2.5,1.1,2.5,2.5
	C179.8,72.3,178.7,73.4,177.3,73.4C177.3,73.4,177.3,73.4,177.3,73.4z"/>
<path class="st0" d="M177.3,103.2h-71.1c-1.4,0-2.5-1.1-2.5-2.5c0-1.4,1.1-2.5,2.5-2.5h71.1c1.4,0,2.5,1.1,2.5,2.5
	C179.8,102.1,178.7,103.2,177.3,103.2C177.3,103.2,177.3,103.2,177.3,103.2z"/>
</svg>
