<?xml version="1.0" encoding="utf-8"?>
<!-- Generator: Adobe Illustrator 21.1.0, SVG Export Plug-In . SVG Version: 6.00 Build 0)  -->
<svg version="1.1" id="Layer_1" xmlns="http://www.w3.org/2000/svg" xmlns:xlink="http://www.w3.org/1999/xlink" x="0px" y="0px"
	 viewBox="0 0 199.6 190.5" style="enable-background:new 0 0 199.6 190.5;" xml:space="preserve">
<style type="text/css">
	.st0{fill:#CB2127;}
	.st1{fill:#333132;}
</style>
<title>1</title>
<rect x="22.7" y="38.3" class="st0" width="61.7" height="66.1"/>
<path class="st1" d="M84.4,106.3H22.7c-1.1,0-2-0.9-2-2v-66c0-1.1,0.9-2,2-2h61.6c1.1,0,2,0.9,2,2v66.1
	C86.4,105.4,85.5,106.3,84.4,106.3z M24.7,102.4h57.7V40.2H24.7C24.7,40.2,24.7,102.4,24.7,102.4z"/>
<path class="st1" d="M183.4,147.8H15.8C8.2,147.8,2,141.6,2,134V31.9c0-7.6,6.2-13.8,13.8-13.8h167.7c7.6,0,13.8,6.2,13.8,13.8V134
	C197.2,141.6,191.1,147.8,183.4,147.8z M15.8,22.1c-5.4,0-9.8,4.4-9.8,9.8V134c0,5.4,4.4,9.8,9.8,9.8h167.7c5.4,0,9.8-4.4,9.8-9.8
	V31.9c0-5.4-4.4-9.8-9.8-9.8H15.8z"/>
<path class="st1" d="M195.3,125.3H4c-1.1-0.2-1.8-1.3-1.6-2.3c0.2-0.8,0.8-1.4,1.6-1.6h191.3c1.1,0.2,1.8,1.3,1.6,2.3
	C196.7,124.5,196.1,125.2,195.3,125.3z"/>
<path class="st1" d="M130.8,173H65.7v-2l-0.1-2c0,0-0.1,0-0.2,0c0.1,0,5.7-1.8,5.4-23.3c0-1.1,0.9-2,1.9-2l0,0c1.1,0,2,0.9,2,1.9
	c0.2,13.1-1.8,19.9-3.9,23.4h55.6c-2.3-3.7-4.7-10.6-4.2-23.4c0.1-1.1,0.9-1.9,2-1.9c1.1,0.1,1.9,0.9,1.9,2
	c-0.8,19.2,5.5,23.4,5.6,23.5c0.9,0.6,1.2,1.8,0.6,2.8C132,172.6,131.5,173,130.8,173z"/>
<path class="st1" d="M176.7,43.6h-71.1c-1.4,0-2.5-1.1-2.5-2.5c0-1.4,1.1-2.5,2.5-2.5h71.1c1.4,0,2.5,1.1,2.5,2.5
	C179.1,42.5,178,43.6,176.7,43.6C176.7,43.6,176.7,43.6,176.7,43.6z"/>
<path class="st1" d="M176.7,73.4h-71.1c-1.4,0-2.5-1.1-2.5-2.5c0-1.4,1.1-2.5,2.5-2.5h71.1c1.4,0,2.5,1.1,2.5,2.5
	C179.1,72.3,178,73.4,176.7,73.4C176.7,73.4,176.7,73.4,176.7,73.4z"/>
<path class="st1" d="M176.7,103.2h-71.1c-1.4,0-2.5-1.1-2.5-2.5c0-1.4,1.1-2.5,2.5-2.5h71.1c1.4,0,2.5,1.1,2.5,2.5
	C179.1,102.1,178,103.2,176.7,103.2C176.7,103.2,176.7,103.2,176.7,103.2z"/>
</svg>
