<?xml version="1.0" encoding="utf-8"?>
<!-- Generator: Adobe Illustrator 21.0.0, SVG Export Plug-In . SVG Version: 6.00 Build 0)  -->
<svg version="1.1" id="Layer_1" xmlns="http://www.w3.org/2000/svg" xmlns:xlink="http://www.w3.org/1999/xlink" x="0px" y="0px"
	 viewBox="0 0 24 24" style="enable-background:new 0 0 24 24;" xml:space="preserve">
<style type="text/css">
	.st0{fill:#333333;}
</style>
<title>Country</title>
<path class="st0" d="M21.7,5.5l-0.4,0.1l-1.9,0.2l-0.5,0.8l-0.4-0.1L17,5.2l-0.2-0.7l-0.3-0.7L15.6,3l-1.1-0.2v0.5l1.1,1l0.5,0.6
	l-0.6,0.3L15.1,5l-0.7-0.3V4.1l-0.9-0.4l-0.3,1.4l-1,0.2l0.1,0.8l1.2,0.2l0.2-1.2l1,0.2l0.6,0.3H16l0.5,1L17.9,8l-0.1,0.6l-1.1-0.1
	l-1.9,1l-1.4,1.7l-0.2,0.7h-0.5l-0.9-0.4l-0.9,0.4l0.2,1l0.4-0.4h0.7v0.9l0.6,0.2l0.6,0.6l0.9-0.3l1.1,0.2l1.2,0.3l0.6,0.1l1,1.2
	l2,1.2l-1.3,2.5L17.5,20L17,21.4l-2,1.3l-0.2,0.8c6.2-1.5,10.1-7.7,8.7-14C23,8,22.5,6.7,21.7,5.5z"/>
<path class="st0" d="M13.3,18.1l-0.9-1.6l0.8-1.6l-0.8-0.2l-0.9-0.9l-1.9-0.4L9,12v0.8H8.8l-1.7-2.3V8.7l-1.2-2L3.9,7H2.6L2,6.6
	l0.8-0.7L2,6.1C-1.2,11.7,0.6,18.8,6.1,22c1.8,1,3.8,1.6,5.9,1.6c0.5,0,1,0,1.5-0.1l-0.1-1.4l0.5-2.1L13.3,18.1z"/>
<path class="st0" d="M4.7,4.1l2.1-0.3l1-0.5l1,0.3l1.7-0.1l0.6-0.9L12,2.7l2-0.2l0.6-0.6l0.8-0.5l1.1,0.2L17,1.5
	c-4.8-2.3-10.6-1-14,3.1l0,0L4.7,4.1z M12.5,1.5l1.2-0.6l0.8,0.4l-1.1,0.8l-1.1,0.1L11.8,2L12.5,1.5z M9,1.6l0.5,0.2l0.7-0.2
	l0.4,0.6L9,2.7L8.2,2.2C8.5,2.1,8.8,1.9,9,1.6z"/>
</svg>
