<?xml version="1.0" encoding="UTF-8" standalone="no"?>
<svg
   xmlns:dc="http://purl.org/dc/elements/1.1/"
   xmlns:cc="http://creativecommons.org/ns#"
   xmlns:rdf="http://www.w3.org/1999/02/22-rdf-syntax-ns#"
   xmlns:svg="http://www.w3.org/2000/svg"
   xmlns="http://www.w3.org/2000/svg"
   xmlns:sodipodi="http://sodipodi.sourceforge.net/DTD/sodipodi-0.dtd"
   xmlns:inkscape="http://www.inkscape.org/namespaces/inkscape"
   width="32.922394"
   height="40"
   version="1.1"
   viewBox="0 0 32.922394 40"
   xml:space="preserve"
   id="svg10"
   sodipodi:docname="teacher2.html"
   style="fill:#ffffff"
   inkscape:version="0.92.2 (5c3e80d, 2017-08-06)"><defs
     id="defs14" /><sodipodi:namedview
     pagecolor="#ffffff"
     bordercolor="#666666"
     borderopacity="1"
     objecttolerance="10"
     gridtolerance="10"
     guidetolerance="10"
     inkscape:pageopacity="0"
     inkscape:pageshadow="2"
     inkscape:window-width="1920"
     inkscape:window-height="1017"
     id="namedview12"
     showgrid="false"
     inkscape:zoom="2.6222222"
     inkscape:cx="14.935772"
     inkscape:cy="20.002016"
     inkscape:window-x="-8"
     inkscape:window-y="-8"
     inkscape:window-maximized="1"
     inkscape:current-layer="svg10" /><metadata
     id="metadata2"><rdf:RDF><cc:Work
         rdf:about=""><dc:format>image/svg+xml</dc:format><dc:type
           rdf:resource="http://purl.org/dc/dcmitype/StillImage" /><dc:title></dc:title></cc:Work></rdf:RDF></metadata><path
     inkscape:connector-curvature="0"
     id="path4"
     d="m 2.9317092,7.2013555 5.356237,2.354897 c -1.062012,1.5699325 -1.616106,3.3707365 -1.616106,5.2638895 0,5.17154 4.2018758,9.419591 9.4195908,9.419591 5.217714,0 9.419591,-4.201876 9.419591,-9.419591 0,-1.846978 -0.554094,-3.693957 -1.569932,-5.2177145 l 4.709795,-2.216374 V 16.3439 l -1.431408,3.047514 c -0.09235,0.230873 -0.09235,0.461745 0.04617,0.646443 0.138524,0.184698 0.369396,0.323221 0.600268,0.323221 h 2.724294 c 0.230872,0 0.461744,-0.09235 0.554093,-0.323221 0.138524,-0.184698 0.138524,-0.41557 0.04617,-0.646443 L 29.943761,16.3439 V 6.7857855 c 0,-0.369396 -0.04617,-0.646443 -0.692617,-0.92349 -0.138523,-0.04617 -12.836501,-5.67945897 -12.836501,-5.67945897 -0.184698,-0.09235 -0.369396,-0.09235 -0.554093,0 L 2.9317002,5.9084705 c -0.230873,0.09235 -0.415571,0.369395 -0.415571,0.646442 0,0.277047 0.138524,0.507919 0.415571,0.646443 z M 24.079613,14.820142 c 0,4.432749 -3.601608,8.034357 -8.034357,8.034357 -4.432748,0 -8.0343558,-3.601608 -8.0343558,-8.034357 0,-1.708455 0.554093,-3.324561 1.523757,-4.709795 l 6.2797268,2.816642 c 0.09235,0.04617 0.184698,0.04617 0.277047,0.04617 0.09235,0 0.184698,0 0.277047,-0.04617 l 6.187378,-2.770468 c 1.015838,1.385234 1.523757,3.001341 1.523757,4.663621 z m 4.848319,4.155702 0.323221,-0.692617 0.277047,0.692617 z M 16.137605,1.5680705 27.358,6.5549125 16.137605,11.541755 4.9172102,6.5549125 Z"
     style="fill:#ffffff;fill-opacity:1;stroke:#ffffff;stroke-width:0.23087232;stroke-miterlimit:4;stroke-dasharray:none;stroke-opacity:1" /><path
     inkscape:connector-curvature="0"
     id="path6"
     d="m 16.461196,22.846188 c -9.0040208,0 -16.34575984,7.34174 -16.34575984,16.34576 0,0.369396 0.323221,0.692617 0.692617,0.692617 H 32.114339 c 0.369396,0 0.692617,-0.323221 0.692617,-0.692617 0,-9.00402 -7.341739,-16.34576 -16.34576,-16.34576 z M 1.5468442,38.499331 c 0.369396,-7.942008 6.92617,-14.267909 14.9605258,-14.267909 8.034357,0 14.544957,6.372076 14.914352,14.267909 z"
     style="fill:#ffffff;fill-opacity:1;stroke:#ffffff;stroke-width:0.23087232;stroke-miterlimit:4;stroke-dasharray:none;stroke-opacity:1" /></svg>