<svg xmlns="http://www.w3.org/2000/svg" width="34" height="32" viewBox="0 0 34 32">
    <path fill="#FFF" fill-rule="evenodd" d="M6 30h22a1 1 0 0 1 0 2H6a1 1 0 0 1 0-2zm11-7a4 4 0 1 1 0-8 4 4 0 0 1 0 8zm0-2a2 2 0 1 0 0-4 2 2 0 0 0 0 4zm8.691-4.345a1 1 0 0 1-1.931.52 7.003 7.003 0 0 0-13.517-.01 1 1 0 1 1-1.93-.522 9.003 9.003 0 0 1 17.378.012zm4.116-3.318a1 1 0 1 1-1.829.81A12.001 12.001 0 0 0 17 7c-4.78 0-9.044 2.82-10.961 7.108a1 1 0 1 1-1.826-.817A14.001 14.001 0 0 1 17 5c5.593 0 10.581 3.31 12.807 8.337zm4.025-3.159a1 1 0 0 1-1.77.93A16.996 16.996 0 0 0 17 2a16.995 16.995 0 0 0-15.052 9.091 1 1 0 0 1-1.77-.932A18.995 18.995 0 0 1 17 0a18.995 18.995 0 0 1 16.832 10.178z"/>
</svg>
