<svg xmlns="http://www.w3.org/2000/svg" width="37" height="40" viewBox="0 0 37 40">
    <g fill="none" fill-rule="evenodd">
        <path fill="#FFF" d="M30.727 18.182h-1.636v-7.273a1.818 1.818 0 1 1 3.636 0v7.273h-2 1.637a4 4 0 0 1 4 4v10.182a4 4 0 0 1-4 4H4a4 4 0 0 1-4-4V22.182a4 4 0 0 1 4-4h26.727zM4 20.182a2 2 0 0 0-2 2v10.182a2 2 0 0 0 2 2h28.364a2 2 0 0 0 2-2V22.182a2 2 0 0 0-2-2H4zm5.09 5.273a1.818 1.818 0 1 1-1.818 1.818c0-1.004.815-1.818 1.819-1.818zm7.274 0a1.818 1.818 0 1 1 0 3.636 1.818 1.818 0 0 1 0-3.636zm10.909 10.909h5.454v.909a2.727 2.727 0 0 1-5.454 0v-.91zm-23.637 0h5.455v.909a2.727 2.727 0 0 1-5.455 0v-.91z"/>
        <circle cx="30.909" cy="3.636" r="3.636" fill="#F8E71C"/>
    </g>
</svg>
