<svg xmlns="http://www.w3.org/2000/svg" width="40" height="40"><g fill="#FFF"><path d="M24.184 4.735H9.421c-.45 0-.82.369-.82.82v10.661c0 .451.37.82.82.82h14.763c.451 0 .82-.369.82-.82V5.555a.822.822 0 00-.82-.82zm-.821 10.661H10.24V6.375h13.123v9.021zM30.744 38.359H2.859a.822.822 0 00-.819.82c0 .449.369.82.819.82h27.885c.451 0 .82-.371.82-.82 0-.45-.369-.82-.82-.82z"/><path d="M36.854 10.238l-2.509-2.895a.475.475 0 00-.386-.172c-.895.017-1.164.894-.738 1.386l2.387 2.755c.558.64.878 1.033.878 1.624h-2.297a.987.987 0 00-.984.984v3.937c0 .902.738 1.64 1.64 1.64h1.641v12.302c0 .449-.369.82-.819.82h-1.813c-.476 0-.648-.443-.648-.82V21.096c0-1.443-1.36-2.419-2.632-2.419h-1.469V4.735a4.102 4.102 0 00-4.1-4.101H8.601A4.103 4.103 0 004.5 4.735v31.927c0 .828.665.838 1.771.861.6.008 1.428.014 2.329.014h16.403c.91 0 1.73-.006 2.328-.014 1.107-.018 1.771-.033 1.771-.861V20.317h1.469c.5 0 .992.385.992.779v10.703c0 1.402.984 2.459 2.288 2.459h1.813c1.36 0 2.46-1.098 2.46-2.459V12.936c.001-1.231-.671-2.01-1.27-2.698zm-9.391 25.645c-.541.01-1.369.016-2.459.016H8.601c-1.091 0-1.919-.006-2.46-.016V4.735c0-1.361 1.1-2.461 2.46-2.461h16.403c1.36 0 2.459 1.1 2.459 2.461v31.148zm9.022-18.027h-1.642v-3.281h1.642v3.281z"/></g></svg>