<svg xmlns="http://www.w3.org/2000/svg" viewBox="0 0 51.4 56"><defs><style>.cls-1{fill:#61c4f2;}.cls-2{fill:#cb2127;}.cls-3{fill:#263357;}</style></defs><title>Certificate</title><g id="Layer_2" data-name="Layer 2"><g id="Layer_1-2" data-name="Layer 1"><path class="cls-1" d="M46.72,32l-3.37,3.12a.68.68,0,0,1-1.15-.49V26.64s0,0,0-.06,0-.15,0-.23,0-.13,0-.19a1.64,1.64,0,0,0-.06-.2c0-.06,0-.13-.07-.19s-.06-.12-.1-.19-.06-.11-.11-.17a1.38,1.38,0,0,0-.14-.16l-.14-.15L41.38,25l-.19-.13-.06,0-.62-.36h0l-.2-.12-.25-.15H37.24l2.1,1.23V42.24a2.14,2.14,0,0,0,.71-.47l.72-.72,6.46-6.46V32.44C46.52,32.44,47.28,31.42,46.72,32Z"/><path class="cls-2" d="M31.63,38.36a0,0,0,0,0-.05,0,2.89,2.89,0,0,1-1.54,1l2,4.39L33.1,40.9,35.94,42,34.09,37.9A2.9,2.9,0,0,1,31.63,38.36Z"/><path class="cls-2" d="M26.6,43.74l2-4.39a2.89,2.89,0,0,1-1.54-1,0,0,0,0,0,0,0,2.91,2.91,0,0,1-2.47-.46L22.7,42l2.84-1.07Z"/><path class="cls-2" d="M28.38,34.4a3.19,3.19,0,0,0,1.89,0A3.25,3.25,0,0,0,32,33.18a3.22,3.22,0,1,0-3.57,1.22Z"/><path class="cls-2" d="M22.88,32.93a1.48,1.48,0,0,0,.95,1.38,1.47,1.47,0,0,1,.95,1.31A1.47,1.47,0,0,0,26.64,37a1.53,1.53,0,0,1,.38-.05,1.47,1.47,0,0,1,1.15.55,1.48,1.48,0,0,0,1,.54h.22a1.48,1.48,0,0,0,1-.54,1.48,1.48,0,0,1,1.15-.55A1.53,1.53,0,0,1,32,37a1.46,1.46,0,0,0,1.48-.43,1.45,1.45,0,0,0,.38-.92,1.51,1.51,0,0,1,.28-.79,1.48,1.48,0,0,1,.67-.51,1.48,1.48,0,0,0,.71-2.19,1.47,1.47,0,0,1,0-1.61,1.48,1.48,0,0,0-.71-2.19,1.46,1.46,0,0,1-.67-.51,1.49,1.49,0,0,1-.28-.79,1.48,1.48,0,0,0-1.47-1.4,1.43,1.43,0,0,0-.39.05,1.47,1.47,0,0,1-1.53-.5,1.48,1.48,0,0,0-2.3,0,1.47,1.47,0,0,1-1.15.55,1.43,1.43,0,0,1-.39-.05,1.43,1.43,0,0,0-.39-.05A1.48,1.48,0,0,0,24.78,27a1.47,1.47,0,0,1-.95,1.3,1.48,1.48,0,0,0-.95,1.38,1.46,1.46,0,0,0,.24.81,1.47,1.47,0,0,1,0,1.61A1.46,1.46,0,0,0,22.88,32.93Zm1.84-2.26a4.5,4.5,0,0,1,.5-1.54,4.6,4.6,0,0,1,.76-1,4.72,4.72,0,0,1,1.3-1,4.71,4.71,0,0,1,2-.47,4.69,4.69,0,0,1,2,.48,4.64,4.64,0,0,1,1.3.94,4.75,4.75,0,0,1,.77,1.05,4.56,4.56,0,0,1,.5,1.53,4.54,4.54,0,0,1,0,1.3,4.56,4.56,0,0,1-.5,1.53,4.75,4.75,0,0,1-.77,1.05l-.06.06a4.64,4.64,0,0,1-2.43,1.28v0l-.07,0a4.72,4.72,0,0,1-1.6,0l-.07,0v0a4.56,4.56,0,0,1-1.2-.4A4.63,4.63,0,0,1,26,34.61L26,34.56a4.6,4.6,0,0,1-.76-1,4.5,4.5,0,0,1-.5-1.54,4.53,4.53,0,0,1,0-1.3Z"/><path class="cls-1" d="M32.9,47.32v-.72H.72v.72A3.59,3.59,0,0,0,4.29,50.9H36.48A3.59,3.59,0,0,1,32.9,47.32Z"/><path class="cls-1" d="M45.06,7.6a2.51,2.51,0,0,0-2.13-2.48,2.12,2.12,0,0,0-.37,0,2.51,2.51,0,0,0-2.5,2.5V9.39h5Z"/><path class="cls-3" d="M51.2,37.62,47.95,34.3V24a.71.71,0,0,0,0-.14A3.64,3.64,0,0,0,46.16,21l-5.39-3.16V10.11h4.29a.72.72,0,0,0,.72-.72V7.6a3.23,3.23,0,0,0-2.72-3.18,2.77,2.77,0,0,0-.5,0H8.22A3.22,3.22,0,0,0,5,7.6V32.29a.6.6,0,0,0,0,.14V45.89H.72a.72.72,0,0,0-.72.72v.72a4.3,4.3,0,0,0,4.29,4.29h32.2a4.3,4.3,0,0,0,4.28-4.29V42.06l6.45-6.45,3,3a.72.72,0,0,0,1-1ZM45.44,22.24a2.19,2.19,0,0,1,1.08,1.89V34.29l-5.75,5.53h0V25a.81.81,0,0,0,0-.09.4.4,0,0,0,0-.09.4.4,0,0,0,0-.09l0-.08,0-.07,0,0,0-.05,0,0h0l-.09-.07h0L36.31,22a2.18,2.18,0,0,1,2.2-3.77l1.13.67h0l.09.05ZM44.35,7.6V8.68H40.77V7.6a1.79,1.79,0,0,1,1.79-1.79l.27,0A1.8,1.8,0,0,1,44.35,7.6ZM5.72,50.19H4.28a2.87,2.87,0,0,1-2.84-2.86H32.18a4.28,4.28,0,0,0,1.09,2.86Zm33.62-2.86a2.87,2.87,0,0,1-2.86,2.86h0a2.87,2.87,0,0,1-2.86-2.86v-.72a.72.72,0,0,0-.72-.72H6.45V32.29a.88.88,0,0,0,0-.14V7.6A1.79,1.79,0,0,1,8.22,5.81H39.88a3.21,3.21,0,0,0-.21.37l0,.07a3.19,3.19,0,0,0-.26.83v.08a3.22,3.22,0,0,0,0,.45V9.39h0V17l-.11-.06a3.61,3.61,0,0,0-3.65,6.24l1.65,1,2.1,1.23V47.32Z"/><circle class="cls-3" cx="47.23" cy="39.07" r="1.01" transform="translate(-11.68 56) rotate(-55.63)"/><path class="cls-3" d="M34.33,10.82a.72.72,0,0,0-.72-.72H29.32a.72.72,0,1,0,0,1.43h4.29A.72.72,0,0,0,34.33,10.82Z"/><path class="cls-3" d="M10.72,11.54H26.46a.72.72,0,1,0,0-1.43H10.72a.72.72,0,1,0,0,1.43Z"/><path class="cls-3" d="M31.47,14.4H10.72a.72.72,0,1,0,0,1.43H31.47a.72.72,0,1,0,0-1.43Z"/><path class="cls-3" d="M30.75,18.7H17.87a.72.72,0,0,0,0,1.43H30.75a.72.72,0,1,0,0-1.43Z"/><path class="cls-3" d="M22.88,23H10.72a.72.72,0,1,0,0,1.43H22.88a.72.72,0,0,0,0-1.43Z"/><path class="cls-3" d="M10.72,20.13H15a.72.72,0,0,0,0-1.43H10.72a.72.72,0,1,0,0,1.43Z"/><path class="cls-3" d="M10.72,28.72h10a.72.72,0,1,0,0-1.43h-10a.72.72,0,1,0,0,1.43Z"/><path class="cls-3" d="M10.72,33h7.86a.72.72,0,0,0,0-1.43H10.72a.72.72,0,1,0,0,1.43Z"/><path class="cls-3" d="M21.45,35.87H10.72a.72.72,0,1,0,0,1.43H21.45a.72.72,0,0,0,0-1.43Z"/><path class="cls-3" d="M19.3,40.17H10.72a.72.72,0,1,0,0,1.43H19.3a.72.72,0,1,0,0-1.43Z"/><path class="cls-3" d="M1.42,20.13a.72.72,0,0,0,.72-.72V7.6A6.09,6.09,0,0,1,8.22,1.52h3.21a.72.72,0,0,0,0-1.43H8.22A7.52,7.52,0,0,0,.71,7.6V19.41A.72.72,0,0,0,1.42,20.13Z"/><circle class="cls-3" cx="13.57" cy="0.81" r="0.81"/><circle class="cls-3" cx="25.76" cy="55.19" r="0.81"/><path class="cls-3" d="M44.35,46.61a.72.72,0,0,0-.72.72,7.16,7.16,0,0,1-7.16,7.16H27.91a.72.72,0,0,0,0,1.43h8.57a8.6,8.6,0,0,0,8.59-8.59A.72.72,0,0,0,44.35,46.61Z"/></g></g></svg>