<svg xmlns="http://www.w3.org/2000/svg" viewBox="0 0 50.36 56"><defs><style>.cls-1{fill:#61c4f2;}.cls-2,.cls-4{fill:#263357;}.cls-3{fill:#cb2127;}.cls-4{stroke:#263357;stroke-miterlimit:10;stroke-width:0.62px;}</style></defs><title>Learn</title><g id="Layer_2" data-name="Layer 2"><g id="Layer_1-2" data-name="Layer 1"><path class="cls-1" d="M47,36.37l-1.43,7.85a4.1,4.1,0,0,1-2.28,3c-.55.23,2.11-.35,2.48-.29s1-.13,1.06-.5L48.81,34A3.39,3.39,0,0,0,47,36.37Z"/><path class="cls-1" d="M16.33,34.4c-.23.77-.18,7.54-.42,8.54a1.75,1.75,0,0,1-.13.35c-.55,1.2-2.53,3.94-3.4,5.55-.1.2-.19.37-.26.53a6,6,0,0,0-.25.74l-.64-.21L9,49.19l1.24-1h0l3.49-5.61c.54-.87.28-4.88.68-5.57a16.77,16.77,0,0,0,2.25-7.88C17.09,30.12,17.11,31.78,16.33,34.4Z"/><circle class="cls-1" cx="24.84" cy="45.42" r="1.02"/><circle class="cls-1" cx="28.25" cy="45.42" r="1.02"/><circle class="cls-1" cx="21.43" cy="45.42" r="1.02"/><path class="cls-2" d="M4.73,15.08a.68.68,0,0,0,.68-.68V8.21a6.77,6.77,0,0,1,6.77-6.77h2a.68.68,0,1,0,0-1.36h-2A8.14,8.14,0,0,0,4,8.21V14.4A.68.68,0,0,0,4.73,15.08Z"/><circle class="cls-2" cx="10.83" cy="52.25" r="0.96" transform="translate(-39.94 35.84) rotate(-60.38)"/><path class="cls-2" d="M50.33,48.52l-.87-2.68a.68.68,0,0,0-.34-.4.69.69,0,0,0-.52,0l-.44.14c.16-1,.45-2.64.74-4.2.23-1.29.45-2.5.59-3.32.4-2.51.6-3.76.2-5.08,0,0-.07-.21-.15-.44-.64-1.69-3-4.58-7.32-8.84V8.22a4.05,4.05,0,0,0-4-4h-26a4,4,0,0,0-4,4V23.68C3.86,27.95,1.46,30.83.82,32.51c-.09.22-.15.44-.15.45C.28,34.26.48,35.52.88,38c.13.84.36,2.1.6,3.42.28,1.52.57,3.1.72,4.1l-.44-.14a.68.68,0,0,0-.86.44L0,48.52a.68.68,0,0,0,1.3.42l.65-2,.31.1,1.33.43L9,49.19l2.2.71,1.3.42.59.19-1.49,4.6a.68.68,0,0,0,.44.86.63.63,0,0,0,.21,0,.68.68,0,0,0,.65-.47l1.7-5.25a.68.68,0,0,0-.44-.86L13,49.05c.12-.21.26-.45.41-.7a.68.68,0,0,0,.4.13H36.52a.68.68,0,0,0,.4-.13c.15.25.29.49.41.7l-1.13.36a.68.68,0,0,0-.44.86l1.69,5.25a.69.69,0,0,0,.65.47.63.63,0,0,0,.21,0,.68.68,0,0,0,.44-.86l-1.49-4.6.59-.19,1.3-.42,7.6-2.45L48.07,47l.31-.1.65,2a.68.68,0,0,0,1.3-.42ZM9.5,8.21a2.68,2.68,0,0,1,2.68-2.68h26a2.69,2.69,0,0,1,2.68,2.68V35.61a2.34,2.34,0,0,1-1.09-1A11.55,11.55,0,0,1,39.23,32a16.75,16.75,0,0,0-.41-2.33v-20a2,2,0,0,0-2-2H13.58a2,2,0,0,0-2,2v20A16.56,16.56,0,0,0,11.13,32a11.77,11.77,0,0,1-.54,2.67,2.41,2.41,0,0,1-1.09,1V8.21ZM33.38,34.58c.09.35.14,2.46.18,4,0,1.72.08,3,.14,3.76h-17c.06-.78.1-2,.14-3.74,0-1.55.09-3.66.18-4,1-3.28.88-5.57-.32-6.82A2.87,2.87,0,0,0,13.88,27a3,3,0,0,0-1,.44V9.61a.67.67,0,0,1,.67-.66H36.79a.67.67,0,0,1,.66.66V27.46a3,3,0,0,0-1-.44,2.87,2.87,0,0,0-2.78.76C32.5,29,32.39,31.31,33.38,34.58Zm-21.66,14-1.45-.47L3.64,46l0-.26c-.13-1-.46-2.8-.78-4.55-.24-1.32-.47-2.56-.6-3.39-.36-2.3-.55-3.46-.25-4.47,0,0,.05-.18.12-.36.51-1.35,2.55-3.83,6-7.38v11a.68.68,0,0,0,1.1.54,5,5,0,0,0,.85-.33,3.62,3.62,0,0,0,1.77-1.71,12.73,12.73,0,0,0,.63-3c.28-2.16.53-3.5,1.73-3.81a1.52,1.52,0,0,1,1.46.39,2.86,2.86,0,0,1,.61,2.06,12.14,12.14,0,0,1-.61,3.42,29.25,29.25,0,0,0-.24,4.37c0,1.68-.09,3.78-.19,4.2a1.32,1.32,0,0,1-.09.22,29.35,29.35,0,0,1-1.65,2.72C12.83,46.76,12.14,47.82,11.72,48.63Zm2.5-1.5.43-.66c.69-1.07,1.35-2.08,1.67-2.75H34c.34.68,1,1.69,1.67,2.75l.43.66Zm24.42,1.5c-.42-.8-1.11-1.87-1.78-2.91A29.24,29.24,0,0,1,35.2,43a1.63,1.63,0,0,1-.09-.22c-.1-.47-.15-2.54-.19-4.21a29.48,29.48,0,0,0-.24-4.36c-1.09-3.63-.47-5,0-5.48a1.52,1.52,0,0,1,1.46-.38c1.21.31,1.46,1.64,1.74,3.8a12.8,12.8,0,0,0,.62,3,3.63,3.63,0,0,0,1.77,1.71,4.77,4.77,0,0,0,.82.31.68.68,0,0,0,1.13-.51V25.6C46.54,30,47.9,32,48.26,33c.07.18.12.36.12.36.3,1,.12,2.17-.25,4.47-.13.81-.35,2-.58,3.29-.33,1.79-.66,3.65-.8,4.65h0c0,.09,0,.17,0,.25Z"/><circle class="cls-2" cx="39.54" cy="52.25" r="0.96" transform="translate(-20.66 26.37) rotate(-29.62)"/><path class="cls-2" d="M45.63,20.32a.68.68,0,0,0,.68-.68V12A.68.68,0,0,0,45,12v7.61A.68.68,0,0,0,45.63,20.32Z"/><path class="cls-2" d="M19,29.4H30A.68.68,0,0,0,30,28H19a.68.68,0,0,0,0,1.36Z"/><path class="cls-2" d="M19,32.13h6.82a.68.68,0,1,0,0-1.36H19a.68.68,0,0,0,0,1.36Z"/><path class="cls-2" d="M24.5,37.58H19a.68.68,0,0,0,0,1.36H24.5a.68.68,0,0,0,0-1.36Z"/><path class="cls-2" d="M30.64,37.58H26.54a.68.68,0,1,0,0,1.36h4.09a.68.68,0,1,0,0-1.36Z"/><path class="cls-2" d="M31.32,34.85H19a.68.68,0,0,0,0,1.36H31.32a.68.68,0,0,0,0-1.36Z"/><circle class="cls-2" cx="16.39" cy="0.77" r="0.77"/><circle class="cls-2" cx="45.63" cy="22.05" r="0.77"/><path class="cls-3" d="M27.4,18.94l-3.77,2.37a.42.42,0,0,1-.25.07.51.51,0,0,1-.23-.06.44.44,0,0,1-.24-.42V16.17a.47.47,0,0,1,.72-.4l3.77,2.37a.47.47,0,0,1,0,.8Z"/><path class="cls-4" d="M32.37,12H18.16a.28.28,0,0,0-.24.3V24.78a.28.28,0,0,0,.24.3h14.2a.28.28,0,0,0,.24-.3V12.29A.28.28,0,0,0,32.37,12Zm-.24,12.49H18.41V12.6H32.12Z"/></g></g></svg>