<svg xmlns="http://www.w3.org/2000/svg" viewBox="0 0 57.99 56"><defs><style>.cls-1{fill:#61c4f2;}.cls-2{fill:#cb2127;}.cls-3,.cls-4{fill:#263357;}.cls-4{stroke:#263357;stroke-miterlimit:10;stroke-width:0.66px;}</style></defs><title>Live</title><g id="Layer_2" data-name="Layer 2"><g id="Layer_1-2" data-name="Layer 1"><path class="cls-1" d="M27.55,40.92v2.74a1.45,1.45,0,0,0,2.9,0V40.92Z"/><path class="cls-2" d="M21.8,19.52l-4,2.52a.44.44,0,0,1-.27.08.54.54,0,0,1-.24-.06.47.47,0,0,1-.26-.44v-5a.5.5,0,0,1,.77-.43l4,2.52a.5.5,0,0,1,0,.85Z"/><path class="cls-3" d="M50,7.34H8a.72.72,0,0,0-.72.72V37.79a.72.72,0,0,0,.72.72H50a.72.72,0,0,0,.72-.72V8.06A.72.72,0,0,0,50,7.34Zm-.72,29.72H8.7V8.79h40.6Z"/><path class="cls-3" d="M12.32,29.81h14.5a.72.72,0,1,0,0-1.45H12.32a.72.72,0,1,0,0,1.45Z"/><path class="cls-3" d="M12.32,32.71h4.35a.72.72,0,0,0,0-1.45H12.32a.72.72,0,1,0,0,1.45Z"/><path class="cls-3" d="M25.37,31.26h-5.8a.72.72,0,0,0,0,1.45h5.8a.72.72,0,1,0,0-1.45Z"/><circle class="cls-3" cx="47.84" cy="55.18" r="0.82"/><circle class="cls-3" cx="19.57" cy="0.82" r="0.82"/><circle class="cls-3" cx="43.5" cy="45.04" r="0.82"/><path class="cls-3" d="M45.67,54.46H8.7a.72.72,0,1,0,0,1.45h37a.72.72,0,1,0,0-1.45Z"/><path class="cls-3" d="M55.82,51.56H41.32V49.39a.72.72,0,0,0-.72-.72h-4a6.42,6.42,0,0,1-.94-3.34V41.41H52a1.69,1.69,0,0,0,1.69-1.69V6a1.58,1.58,0,0,0-1.58-1.58H5.93A1.58,1.58,0,0,0,4.35,6V39.83a1.58,1.58,0,0,0,1.58,1.58h16.3v3.91a6.42,6.42,0,0,1-.94,3.34H17.4a.72.72,0,0,0-.72.72v2.17H2.17a.72.72,0,0,0,0,1.45H55.82a.72.72,0,0,0,0-1.45ZM5.8,39.83V6a.13.13,0,0,1,.13-.13H52.06a.13.13,0,0,1,.13.13V39.72A.24.24,0,0,1,52,40h-46A.13.13,0,0,1,5.8,39.83Zm22.47,1.58h1.45v2.25a.73.73,0,0,1-1.45,0Zm-4.59,3.91V41.41h3.14v2.25a2.18,2.18,0,0,0,4.35,0V41.41h3.09v3.91A7.87,7.87,0,0,0,35,48.66H22.94A7.87,7.87,0,0,0,23.68,45.32Zm-5.55,6.24V50.11H39.87v1.45Z"/><path class="cls-3" d="M34.8,32.14a.72.72,0,0,0-.72.72V34.8a.72.72,0,1,0,1.45,0V32.86A.72.72,0,0,0,34.8,32.14Z"/><path class="cls-3" d="M43.5,32.14a.72.72,0,0,0-.72.72V34.8a.72.72,0,1,0,1.45,0V32.86A.72.72,0,0,0,43.5,32.14Z"/><path class="cls-3" d="M31.15,35.48a.73.73,0,0,0,.7-.75c0-.39-.05-3.81,2.41-5.53a5,5,0,0,1,1.3-.65,4.74,4.74,0,0,0,3.56,3.54h0a4.74,4.74,0,0,0,3.56-3.54,5,5,0,0,1,1.3.65c2.46,1.72,2.43,5.15,2.41,5.53a.73.73,0,0,0,.7.75h0a.72.72,0,0,0,.72-.7c0-.76,0-4.66-3-6.77a6.62,6.62,0,0,0-2.71-1.09.72.72,0,0,0-.84.82,1.87,1.87,0,0,1,0,.26c0,1.42-1.76,2.58-2.18,2.64S37,29.42,37,28a1.87,1.87,0,0,1,0-.26.72.72,0,0,0-.84-.82A6.62,6.62,0,0,0,33.43,28c-3,2.11-3.06,6-3,6.77A.72.72,0,0,0,31.15,35.48Z"/><path class="cls-3" d="M32.08,26.17a.73.73,0,1,0,1.38-.45,22.52,22.52,0,0,1-.82-4.62c-.16-2.87-.32-5.58,1.39-7.46a6.89,6.89,0,0,1,4.91-2h.32a6.91,6.91,0,0,1,4.93,2c1.7,1.88,1.55,4.59,1.39,7.46a22.53,22.53,0,0,1-.82,4.62.72.72,0,1,0,1.38.45,23.83,23.83,0,0,0,.88-5c.17-3,.35-6.19-1.76-8.52a8.33,8.33,0,0,0-6-2.43h-.37a8.31,8.31,0,0,0-6,2.43C30.84,15,31,18.14,31.2,21.18A23.82,23.82,0,0,0,32.08,26.17Z"/><path class="cls-3" d="M37.29,22.2a.73.73,0,0,0,.15,1,2.73,2.73,0,0,0,3.44,0A.72.72,0,0,0,40,22a1.29,1.29,0,0,1-1.71,0A.73.73,0,0,0,37.29,22.2Z"/><path class="cls-3" d="M40.91,19.33a.16.16,0,0,1,.1,0h0a.16.16,0,0,1,.1,0,.72.72,0,0,0,.95-1.1A1.64,1.64,0,0,0,41,17.85a1.6,1.6,0,0,0-1,.39.72.72,0,0,0,.95,1.1Z"/><path class="cls-3" d="M34.19,17.15a.72.72,0,0,0-.81.63,7.6,7.6,0,0,0,.06,2.3.73.73,0,0,0,0,.11c.39,2.32,2.21,5.9,5.58,6h.13c3.42-.07,5.24-3.77,5.58-6.07s-.21-4.22-1.57-5.26a4.28,4.28,0,0,0-1.81-.8l0-.08a.72.72,0,1,0-1.42-.3,5.94,5.94,0,0,1-2.19,3.46,6,6,0,0,1-3,1.18c0-.11,0-.22,0-.32A.73.73,0,0,0,34.19,17.15Zm6.72-1.74A2.93,2.93,0,0,1,42.3,16c1.32,1,1.16,3.06,1,3.9-.23,1.56-1.55,4.79-4.16,4.84h-.1c-2.61-.06-3.94-3.29-4.18-4.83v-.15a7.7,7.7,0,0,0,1.62-.34.72.72,0,0,0,.86-.06.16.16,0,0,1,.1,0h0a.16.16,0,0,1,.1,0,.72.72,0,0,0,1-1l.08-.06A7.28,7.28,0,0,0,40.91,15.41Z"/><path class="cls-3" d="M57.27,26.91a.72.72,0,0,0-.72.72V39.73A4.59,4.59,0,0,1,52,44.31H45.67a.72.72,0,0,0,0,1.45H52a6,6,0,0,0,6-6V27.64A.72.72,0,0,0,57.27,26.91Z"/><path class="cls-3" d="M1.45,6A4.48,4.48,0,0,1,5.93,1.54H16.67a.72.72,0,0,0,0-1.45H5.93A5.94,5.94,0,0,0,0,6v3.5a.72.72,0,0,0,1.45,0Z"/><path class="cls-4" d="M27.08,12.12H12a.3.3,0,0,0-.26.32V25.73a.3.3,0,0,0,.26.32h15.1a.3.3,0,0,0,.26-.32V12.45A.3.3,0,0,0,27.08,12.12Zm-.26,13.28H12.24V12.77H26.82Z"/></g></g></svg>